<svg width="28" height="28" viewBox="0 0 28 28" fill="none" xmlns="http://www.w3.org/2000/svg">
<path d="M14.1865 12.6818C14.0698 12.6702 13.9298 12.6702 13.8015 12.6818C11.0248 12.5885 8.81982 10.3135 8.81982 7.5135C8.81982 4.65516 11.1298 2.3335 13.9998 2.3335C16.8582 2.3335 19.1798 4.65516 19.1798 7.5135C19.1682 10.3135 16.9632 12.5885 14.1865 12.6818Z" stroke="#010101" stroke-opacity="0.6" stroke-width="1.4" stroke-linecap="round" stroke-linejoin="round"/>
<path d="M8.35334 16.9865C5.53001 18.8765 5.53001 21.9565 8.35334 23.8348C11.5617 25.9815 16.8233 25.9815 20.0317 23.8348C22.855 21.9448 22.855 18.8648 20.0317 16.9865C16.835 14.8515 11.5733 14.8515 8.35334 16.9865Z" stroke="#010101" stroke-opacity="0.6" stroke-width="1.4" stroke-linecap="round" stroke-linejoin="round"/>
</svg>
