<svg width="30" height="34" viewBox="0 0 30 34" fill="none" xmlns="http://www.w3.org/2000/svg">
<g filter="url(#filter0_d_4_2525)">
<path d="M14.187 12.6817C14.0703 12.67 13.9303 12.67 13.802 12.6817C11.0253 12.5884 8.82031 10.3134 8.82031 7.51337C8.82031 4.65504 11.1303 2.33337 14.0003 2.33337C16.8586 2.33337 19.1803 4.65504 19.1803 7.51337C19.1686 10.3134 16.9636 12.5884 14.187 12.6817Z" fill="#0E5723" stroke="#0E5723" stroke-width="1.4" stroke-linecap="round" stroke-linejoin="round"/>
<path d="M8.35285 16.9866C5.52952 18.8766 5.52952 21.9566 8.35285 23.835C11.5612 25.9816 16.8229 25.9816 20.0312 23.835C22.8545 21.945 22.8545 18.865 20.0312 16.9866C16.8345 14.8516 11.5729 14.8516 8.35285 16.9866Z" fill="#0E5723" stroke="#0E5723" stroke-width="1.4" stroke-linecap="round" stroke-linejoin="round"/>
</g>
<defs>
<filter id="filter0_d_4_2525" x="-1" y="-1" width="36" height="36" filterUnits="userSpaceOnUse" color-interpolation-filters="sRGB">
<feFlood flood-opacity="0" result="BackgroundImageFix"/>
<feColorMatrix in="SourceAlpha" type="matrix" values="0 0 0 0 0 0 0 0 0 0 0 0 0 0 0 0 0 0 127 0" result="hardAlpha"/>
<feOffset dx="3" dy="3"/>
<feGaussianBlur stdDeviation="2"/>
<feComposite in2="hardAlpha" operator="out"/>
<feColorMatrix type="matrix" values="0 0 0 0 0.0392157 0 0 0 0 0.25098 0 0 0 0 0.0980392 0 0 0 0.25 0"/>
<feBlend mode="normal" in2="BackgroundImageFix" result="effect1_dropShadow_4_2525"/>
<feBlend mode="normal" in="SourceGraphic" in2="effect1_dropShadow_4_2525" result="shape"/>
</filter>
</defs>
</svg>
