<svg width="22" height="22" viewBox="0 0 22 22" fill="none" xmlns="http://www.w3.org/2000/svg">
<path d="M10.9997 1.83301C8.59801 1.83301 6.64551 3.78551 6.64551 6.18717C6.64551 8.54301 8.48801 10.4497 10.8897 10.5322C10.963 10.523 11.0363 10.523 11.0913 10.5322C11.1097 10.5322 11.1188 10.5322 11.1372 10.5322C11.1463 10.5322 11.1463 10.5322 11.1555 10.5322C13.5022 10.4497 15.3447 8.54301 15.3538 6.18717C15.3538 3.78551 13.4013 1.83301 10.9997 1.83301Z" fill="#0E5723"/>
<path d="M15.6569 12.9711C13.0994 11.2661 8.92854 11.2661 6.35271 12.9711C5.18854 13.7503 4.54688 14.8045 4.54688 15.932C4.54688 17.0595 5.18854 18.1045 6.34354 18.8745C7.62687 19.7361 9.31354 20.167 11.0002 20.167C12.6869 20.167 14.3735 19.7361 15.6569 18.8745C16.8119 18.0953 17.4535 17.0503 17.4535 15.9136C17.4444 14.7861 16.8119 13.7411 15.6569 12.9711Z" fill="#0E5723"/>
</svg>
