<svg width="22" height="22" viewBox="0 0 22 22" fill="none" xmlns="http://www.w3.org/2000/svg">
<path d="M17.8833 5.36248L12.4383 2.21831C11.5491 1.70498 10.4491 1.70498 9.55078 2.21831L4.11495 5.36248C3.22578 5.87581 2.67578 6.82915 2.67578 7.86498V14.135C2.67578 15.1616 3.22578 16.115 4.11495 16.6375L9.55995 19.7816C10.4491 20.295 11.5491 20.295 12.4474 19.7816L17.8924 16.6375C18.7816 16.1241 19.3316 15.1708 19.3316 14.135V7.86498C19.3224 6.82915 18.7724 5.88498 17.8833 5.36248ZM10.3116 7.10415C10.3116 6.72831 10.6233 6.41665 10.9991 6.41665C11.3749 6.41665 11.6866 6.72831 11.6866 7.10415V11.9166C11.6866 12.2925 11.3749 12.6041 10.9991 12.6041C10.6233 12.6041 10.3116 12.2925 10.3116 11.9166V7.10415ZM11.8424 15.2441C11.7966 15.3541 11.7324 15.455 11.6499 15.5466C11.4758 15.7208 11.2466 15.8125 10.9991 15.8125C10.8799 15.8125 10.7608 15.785 10.6508 15.7391C10.5316 15.6933 10.4399 15.6291 10.3483 15.5466C10.2658 15.455 10.2016 15.3541 10.1466 15.2441C10.1008 15.1341 10.0824 15.015 10.0824 14.8958C10.0824 14.6575 10.1741 14.4191 10.3483 14.245C10.4399 14.1625 10.5316 14.0983 10.6508 14.0525C10.9899 13.9058 11.3933 13.9883 11.6499 14.245C11.7324 14.3366 11.7966 14.4283 11.8424 14.5475C11.8883 14.6575 11.9158 14.7766 11.9158 14.8958C11.9158 15.015 11.8883 15.1341 11.8424 15.2441Z" fill="#0E5723"/>
</svg>
