<svg width="22" height="22" viewBox="0 0 22 22" fill="none" xmlns="http://www.w3.org/2000/svg">
<path d="M5.0711 15.4275L4.71359 18.3242C4.62193 19.085 5.43776 19.6167 6.08859 19.2225L9.26026 17.3342C9.48026 17.2059 9.53526 16.9309 9.41609 16.7109C8.95776 15.8675 8.71026 14.9142 8.71026 13.9609C8.71026 10.6059 11.5886 7.87421 15.1269 7.87421C15.8511 7.87421 16.5569 7.98421 17.2169 8.20421C17.5561 8.31421 17.8861 8.00254 17.8036 7.65421C16.9694 4.31754 13.7611 1.83337 9.92943 1.83337C5.45609 1.83337 1.83526 5.21587 1.83526 9.38671C1.83526 11.8617 3.10943 14.0525 5.0711 15.4275Z" fill="#0E5723"/>
<path d="M10.0846 13.9608C10.0846 15.0516 10.488 16.06 11.1663 16.8575C12.0738 17.9575 13.513 18.6633 15.1263 18.6633L17.5188 20.0841C17.9221 20.3316 18.4355 19.9925 18.3805 19.525L18.1513 17.7191C19.3796 16.8666 20.168 15.5008 20.168 13.9608C20.168 12.3475 19.3063 10.9266 17.9863 10.0833C17.1705 9.55165 16.1896 9.24915 15.1263 9.24915C12.3396 9.24915 10.0846 11.3575 10.0846 13.9608Z" fill="#0E5723"/>
</svg>
