<svg width="22" height="22" viewBox="0 0 22 22" fill="none" xmlns="http://www.w3.org/2000/svg">
<path d="M19.9463 14.5934L14.0796 4.03337C13.2913 2.61254 12.2004 1.83337 10.9996 1.83337C9.79878 1.83337 8.70795 2.61254 7.91961 4.03337L2.05295 14.5934C1.31045 15.9409 1.22795 17.2334 1.82378 18.2509C2.41961 19.2684 3.59295 19.8275 5.13295 19.8275H16.8663C18.4063 19.8275 19.5796 19.2684 20.1754 18.2509C20.7713 17.2334 20.6888 15.9317 19.9463 14.5934ZM10.3121 8.25004C10.3121 7.87421 10.6238 7.56254 10.9996 7.56254C11.3754 7.56254 11.6871 7.87421 11.6871 8.25004V12.8334C11.6871 13.2092 11.3754 13.5209 10.9996 13.5209C10.6238 13.5209 10.3121 13.2092 10.3121 12.8334V8.25004ZM11.6504 16.2342C11.6046 16.2709 11.5588 16.3075 11.5129 16.3442C11.4579 16.3809 11.4029 16.4084 11.3479 16.4267C11.2929 16.4542 11.2379 16.4725 11.1738 16.4817C11.1188 16.4909 11.0546 16.5 10.9996 16.5C10.9446 16.5 10.8804 16.4909 10.8163 16.4817C10.7613 16.4725 10.7063 16.4542 10.6513 16.4267C10.5963 16.4084 10.5413 16.3809 10.4863 16.3442C10.4404 16.3075 10.3946 16.2709 10.3488 16.2342C10.1838 16.06 10.0829 15.8217 10.0829 15.5834C10.0829 15.345 10.1838 15.1067 10.3488 14.9325C10.3946 14.8959 10.4404 14.8592 10.4863 14.8225C10.5413 14.7859 10.5963 14.7584 10.6513 14.74C10.7063 14.7125 10.7613 14.6942 10.8163 14.685C10.9354 14.6575 11.0638 14.6575 11.1738 14.685C11.2379 14.6942 11.2929 14.7125 11.3479 14.74C11.4029 14.7584 11.4579 14.7859 11.5129 14.8225C11.5588 14.8592 11.6046 14.8959 11.6504 14.9325C11.8154 15.1067 11.9163 15.345 11.9163 15.5834C11.9163 15.8217 11.8154 16.06 11.6504 16.2342Z" fill="#0E5723"/>
</svg>
