<svg width="22" height="22" viewBox="0 0 22 22" fill="none" xmlns="http://www.w3.org/2000/svg">
<path d="M16.9585 3.76714L12.3843 2.05297C11.6235 1.7688 10.3768 1.7688 9.61598 2.05297L5.04181 3.76714C3.98764 4.1613 3.12598 5.40797 3.12598 6.5263V13.3371C3.12598 14.4188 3.84098 15.8396 4.71181 16.4905L8.65348 19.433C9.94598 20.4046 12.0726 20.4046 13.3651 19.433L17.3068 16.4905C18.1776 15.8396 18.8926 14.4188 18.8926 13.3371V6.5263C18.8743 5.40797 18.0126 4.1613 16.9585 3.76714ZM10.936 6.4438C12.0176 6.4438 12.8976 7.3238 12.8976 8.40547C12.8976 9.4688 12.0635 10.3213 11.0093 10.358H10.991H10.9726C10.9543 10.358 10.936 10.358 10.9176 10.358C9.81764 10.3213 8.99264 9.4688 8.99264 8.40547C8.98348 7.3238 9.86348 6.4438 10.936 6.4438ZM13.0076 14.9963C12.4485 15.363 11.7243 15.5555 11.0001 15.5555C10.276 15.5555 9.54264 15.3721 8.99264 14.9963C8.47014 14.648 8.18598 14.1713 8.17681 13.6488C8.17681 13.1355 8.47014 12.6405 8.99264 12.2921C10.1018 11.5588 11.9076 11.5588 13.0168 12.2921C13.5393 12.6405 13.8326 13.1171 13.8326 13.6396C13.8235 14.153 13.5301 14.648 13.0076 14.9963Z" fill="#0E5723"/>
</svg>
