<svg width="22" height="22" viewBox="0 0 22 22" fill="none" xmlns="http://www.w3.org/2000/svg">
<path d="M17.1145 1.83337H15.3728C13.3745 1.83337 12.3203 2.88754 12.3203 4.88587V6.62754C12.3203 8.62587 13.3745 9.68004 15.3728 9.68004H17.1145C19.1128 9.68004 20.167 8.62587 20.167 6.62754V4.88587C20.167 2.88754 19.1128 1.83337 17.1145 1.83337Z" fill="#0E5723"/>
<path d="M6.63536 12.3108H4.8937C2.8862 12.3108 1.83203 13.365 1.83203 15.3633V17.105C1.83203 19.1125 2.8862 20.1666 4.88453 20.1666H6.6262C8.62453 20.1666 9.6787 19.1125 9.6787 17.1141V15.3725C9.68787 13.365 8.6337 12.3108 6.63536 12.3108Z" fill="#0E5723"/>
<path d="M5.76453 9.69837C7.93639 9.69837 9.69703 7.93773 9.69703 5.76587C9.69703 3.59401 7.93639 1.83337 5.76453 1.83337C3.59267 1.83337 1.83203 3.59401 1.83203 5.76587C1.83203 7.93773 3.59267 9.69837 5.76453 9.69837Z" fill="#0E5723"/>
<path d="M16.2333 20.1666C18.4051 20.1666 20.1658 18.406 20.1658 16.2341C20.1658 14.0623 18.4051 12.3016 16.2333 12.3016C14.0614 12.3016 12.3008 14.0623 12.3008 16.2341C12.3008 18.406 14.0614 20.1666 16.2333 20.1666Z" fill="#0E5723"/>
</svg>
