<svg width="22" height="22" viewBox="0 0 22 22" fill="none" xmlns="http://www.w3.org/2000/svg">
<path d="M8.24967 1.83301C5.84801 1.83301 3.89551 3.78551 3.89551 6.18717C3.89551 8.54301 5.73801 10.4497 8.13968 10.5322C8.21301 10.523 8.28634 10.523 8.34134 10.5322C8.35968 10.5322 8.36884 10.5322 8.38717 10.5322C8.39634 10.5322 8.39634 10.5322 8.40551 10.5322C10.7522 10.4497 12.5947 8.54301 12.6038 6.18717C12.6038 3.78551 10.6513 1.83301 8.24967 1.83301Z" fill="#0E5723"/>
<path d="M12.9069 12.9711C10.3494 11.2661 6.17854 11.2661 3.60271 12.9711C2.43854 13.7503 1.79688 14.8045 1.79688 15.932C1.79688 17.0595 2.43854 18.1045 3.59354 18.8745C4.87687 19.7361 6.56354 20.167 8.25021 20.167C9.93687 20.167 11.6235 19.7361 12.9069 18.8745C14.0619 18.0953 14.7035 17.0503 14.7035 15.9136C14.6944 14.7861 14.0619 13.7411 12.9069 12.9711Z" fill="#0E5723"/>
<path d="M18.3246 6.72859C18.4712 8.50692 17.2062 10.0653 15.4554 10.2761C15.4462 10.2761 15.4462 10.2761 15.4371 10.2761H15.4096C15.3546 10.2761 15.2996 10.2761 15.2537 10.2944C14.3646 10.3403 13.5487 10.0561 12.9346 9.53359C13.8787 8.69025 14.4196 7.42525 14.3096 6.05025C14.2454 5.30775 13.9887 4.62942 13.6037 4.05192C13.9521 3.87775 14.3554 3.76775 14.7679 3.73109C16.5646 3.57525 18.1687 4.91359 18.3246 6.72859Z" fill="#0E5723"/>
<path d="M20.1576 15.2075C20.0842 16.0967 19.5159 16.8667 18.5626 17.3892C17.6459 17.8934 16.4909 18.1317 15.3451 18.1042C16.0051 17.5084 16.3901 16.7659 16.4634 15.9775C16.5551 14.8409 16.0142 13.75 14.9326 12.8792C14.3184 12.3934 13.6034 12.0084 12.8242 11.7242C14.8501 11.1375 17.3984 11.5317 18.9659 12.7967C19.8092 13.475 20.2401 14.3275 20.1576 15.2075Z" fill="#0E5723"/>
</svg>
