<svg width="22" height="22" viewBox="0 0 22 22" fill="none" xmlns="http://www.w3.org/2000/svg">
<path d="M13.1541 1.83337H8.84578C7.89245 1.83337 7.11328 2.60337 7.11328 3.55671V4.41837C7.11328 5.37171 7.88328 6.14171 8.83661 6.14171H13.1541C14.1074 6.14171 14.8774 5.37171 14.8774 4.41837V3.55671C14.8866 2.60337 14.1074 1.83337 13.1541 1.83337Z" fill="#0E5723"/>
<path d="M15.8031 4.41831C15.8031 5.87581 14.6115 7.06748 13.154 7.06748H8.84562C7.38812 7.06748 6.19646 5.87581 6.19646 4.41831C6.19646 3.90498 5.64646 3.58415 5.18812 3.82248C3.89562 4.50998 3.01562 5.87581 3.01562 7.44331V16.0691C3.01562 18.3241 4.85813 20.1666 7.11312 20.1666H14.8865C17.1415 20.1666 18.984 18.3241 18.984 16.0691V7.44331C18.984 5.87581 18.104 4.50998 16.8115 3.82248C16.3531 3.58415 15.8031 3.90498 15.8031 4.41831ZM11.3481 15.5375H7.33312C6.95729 15.5375 6.64562 15.2258 6.64562 14.85C6.64562 14.4741 6.95729 14.1625 7.33312 14.1625H11.3481C11.724 14.1625 12.0356 14.4741 12.0356 14.85C12.0356 15.2258 11.724 15.5375 11.3481 15.5375ZM13.7498 11.8708H7.33312C6.95729 11.8708 6.64562 11.5591 6.64562 11.1833C6.64562 10.8075 6.95729 10.4958 7.33312 10.4958H13.7498C14.1256 10.4958 14.4373 10.8075 14.4373 11.1833C14.4373 11.5591 14.1256 11.8708 13.7498 11.8708Z" fill="#0E5723"/>
</svg>
