<svg width="22" height="22" viewBox="0 0 22 22" fill="none" xmlns="http://www.w3.org/2000/svg">
<path d="M14.107 4.7758L15.3995 7.3608C15.5737 7.7183 16.0412 8.05747 16.4353 8.1308L18.7728 8.5158C20.267 8.7633 20.6153 9.84497 19.5428 10.9266L17.7187 12.7508C17.4162 13.0533 17.242 13.6491 17.3428 14.08L17.8653 16.335C18.2778 18.1133 17.3245 18.81 15.757 17.875L13.5662 16.5733C13.172 16.335 12.512 16.335 12.1178 16.5733L9.927 17.875C8.3595 18.8008 7.40617 18.1133 7.81867 16.335L8.34117 14.08C8.42367 13.64 8.2495 13.0441 7.947 12.7416L6.12283 10.9175C5.05033 9.84497 5.39867 8.7633 6.89283 8.50664L9.23033 8.12163C9.6245 8.05747 10.092 7.70914 10.2662 7.35164L11.5587 4.76664C12.2645 3.3733 13.4012 3.3733 14.107 4.7758Z" fill="#0E5723"/>
<path d="M7.33203 5.27087H1.83203C1.4562 5.27087 1.14453 4.95921 1.14453 4.58337C1.14453 4.20754 1.4562 3.89587 1.83203 3.89587H7.33203C7.70786 3.89587 8.01953 4.20754 8.01953 4.58337C8.01953 4.95921 7.70786 5.27087 7.33203 5.27087Z" fill="#0E5723"/>
<path d="M4.58203 18.1041H1.83203C1.4562 18.1041 1.14453 17.7925 1.14453 17.4166C1.14453 17.0408 1.4562 16.7291 1.83203 16.7291H4.58203C4.95786 16.7291 5.26953 17.0408 5.26953 17.4166C5.26953 17.7925 4.95786 18.1041 4.58203 18.1041Z" fill="#0E5723"/>
<path d="M2.7487 11.6875H1.83203C1.4562 11.6875 1.14453 11.3758 1.14453 11C1.14453 10.6242 1.4562 10.3125 1.83203 10.3125H2.7487C3.12453 10.3125 3.4362 10.6242 3.4362 11C3.4362 11.3758 3.12453 11.6875 2.7487 11.6875Z" fill="#0E5723"/>
</svg>
