<svg width="22" height="22" viewBox="0 0 22 22" fill="none" xmlns="http://www.w3.org/2000/svg">
<path d="M11.621 18.294C11.8729 18.3526 11.896 18.6824 11.6507 18.7642L10.2023 19.2409C6.56316 20.4142 4.64732 19.4334 3.46482 15.7942L2.29149 12.1734C1.11816 8.53422 2.08982 6.60922 5.72899 5.43588L6.12466 5.30485C6.52752 5.17144 6.92118 5.5761 6.80938 5.98548C6.76587 6.14481 6.72368 6.30995 6.68232 6.48088L5.78399 10.3217C4.77566 14.6392 6.25149 17.0226 10.569 18.0492L11.621 18.294Z" fill="#0E5723"/>
<path d="M15.738 2.94247L14.2072 2.58497C11.1455 1.8608 9.32136 2.45663 8.24886 4.67497C7.97386 5.23413 7.75386 5.91247 7.57053 6.69163L6.6722 10.5325C5.77386 14.3641 6.95636 16.2525 10.7789 17.16L12.3189 17.5266C12.8505 17.655 13.3455 17.7375 13.8039 17.7741C16.6639 18.0491 18.1855 16.7108 18.9555 13.4016L19.8539 9.56997C20.7522 5.7383 19.5789 3.8408 15.738 2.94247ZM14.0147 12.2191C13.9322 12.5308 13.6572 12.7325 13.3455 12.7325C13.2905 12.7325 13.2355 12.7233 13.1714 12.7141L10.5039 12.0358C10.1372 11.9441 9.9172 11.5683 10.0089 11.2016C10.1005 10.835 10.4764 10.615 10.843 10.7066L13.5105 11.385C13.8864 11.4766 14.1064 11.8525 14.0147 12.2191ZM16.7005 9.1208C16.618 9.43247 16.343 9.63413 16.0314 9.63413C15.9764 9.63413 15.9214 9.62497 15.8572 9.6158L11.4114 8.4883C11.0447 8.39663 10.8247 8.0208 10.9164 7.65413C11.008 7.28747 11.3839 7.06747 11.7505 7.15913L16.1964 8.28663C16.5722 8.36913 16.7922 8.74497 16.7005 9.1208Z" fill="#0E5723"/>
</svg>
