<svg width="22" height="22" viewBox="0 0 22 22" fill="none" xmlns="http://www.w3.org/2000/svg">
<path d="M14.4837 2.02579C14.1079 1.64995 13.457 1.90662 13.457 2.42912V5.62829C13.457 6.96662 14.5937 8.07579 15.9779 8.07579C16.8487 8.08495 18.0587 8.08495 19.0945 8.08495C19.617 8.08495 19.892 7.47079 19.5254 7.10412C18.2054 5.77495 15.8404 3.38245 14.4837 2.02579Z" fill="#0E5723"/>
<path d="M18.793 9.34087H16.1438C13.9713 9.34087 12.2021 7.57171 12.2021 5.39921V2.75004C12.2021 2.24587 11.7896 1.83337 11.2855 1.83337H7.3988C4.57547 1.83337 2.29297 3.66671 2.29297 6.93921V15.0609C2.29297 18.3334 4.57547 20.1667 7.3988 20.1667H14.6038C17.4271 20.1667 19.7096 18.3334 19.7096 15.0609V10.2575C19.7096 9.75337 19.2971 9.34087 18.793 9.34087ZM10.543 16.2709H6.8763C6.50047 16.2709 6.1888 15.9592 6.1888 15.5834C6.1888 15.2075 6.50047 14.8959 6.8763 14.8959H10.543C10.9188 14.8959 11.2305 15.2075 11.2305 15.5834C11.2305 15.9592 10.9188 16.2709 10.543 16.2709ZM12.3763 12.6042H6.8763C6.50047 12.6042 6.1888 12.2925 6.1888 11.9167C6.1888 11.5409 6.50047 11.2292 6.8763 11.2292H12.3763C12.7521 11.2292 13.0638 11.5409 13.0638 11.9167C13.0638 12.2925 12.7521 12.6042 12.3763 12.6042Z" fill="#0E5723"/>
</svg>
