<svg width="22" height="22" viewBox="0 0 22 22" fill="none" xmlns="http://www.w3.org/2000/svg">
<path d="M11.621 18.2944C11.8729 18.353 11.896 18.6828 11.6507 18.7646L10.2023 19.2412C6.56316 20.4146 4.64732 19.4337 3.46482 15.7946L2.29149 12.1737C1.11816 8.53458 2.08982 6.60958 5.72899 5.43625L6.12466 5.30522C6.52752 5.1718 6.92118 5.57646 6.80938 5.98585C6.76587 6.14518 6.72368 6.31031 6.68232 6.48125L5.78399 10.3221C4.77566 14.6396 6.25149 17.0229 10.569 18.0496L11.621 18.2944Z" fill="#0E5723"/>
<path d="M15.739 2.94247L14.2082 2.58497C11.1465 1.8608 9.32234 2.45663 8.24984 4.67497C7.97484 5.23413 7.75484 5.91247 7.57151 6.69163L6.67317 10.5325C5.77484 14.3641 6.95734 16.2525 10.7798 17.16L12.3198 17.5266C12.8515 17.655 13.3465 17.7375 13.8048 17.7741C16.6648 18.0491 18.1865 16.7108 18.9565 13.4016L19.8548 9.56997C20.7532 5.7383 19.5798 3.8408 15.739 2.94247ZM14.0157 12.2191C13.9332 12.5308 13.6582 12.7325 13.3465 12.7325C13.2915 12.7325 13.2365 12.7233 13.1723 12.7141L10.5048 12.0358C10.1382 11.9441 9.91817 11.5683 10.0098 11.2016C10.1015 10.835 10.4773 10.615 10.844 10.7066L13.5115 11.385C13.8873 11.4766 14.1073 11.8525 14.0157 12.2191ZM16.7015 9.1208C16.619 9.43247 16.344 9.63413 16.0323 9.63413C15.9773 9.63413 15.9223 9.62497 15.8582 9.6158L11.4123 8.4883C11.0457 8.39663 10.8257 8.0208 10.9173 7.65413C11.009 7.28747 11.3848 7.06747 11.7515 7.15913L16.1973 8.28663C16.5732 8.36913 16.7932 8.74497 16.7015 9.1208Z" fill="#0E5723"/>
</svg>
