<svg width="50" height="50" viewBox="0 0 50 50" fill="none" xmlns="http://www.w3.org/2000/svg">
<path d="M48.4883 12.6816C47.1768 7.84961 42.1514 2.82422 37.3193 1.5127C34.3574 0.773437 30.3877 0.0126953 25 0C19.6133 0.0136719 15.6436 0.773437 12.6816 1.5127C7.84961 2.8252 2.82422 7.84961 1.5127 12.6816C0.773437 15.6436 0.0136719 19.6133 0 25C0.0136719 30.3877 0.773437 34.3574 1.5127 37.3193C2.82422 42.1514 7.84961 47.1758 12.6816 48.4883C15.6436 49.2275 19.6152 49.9873 25 50.001C30.3877 49.9873 34.3574 49.2275 37.3193 48.4883C42.1514 47.1758 47.1768 42.1514 48.4883 37.3193C49.2275 34.3574 49.9873 30.3857 50.001 25C49.9873 19.6133 49.2275 15.6436 48.4883 12.6816Z" fill="#B3F0B4" fill-opacity="0.3"/>
<path d="M41.3516 18.2226C41.2139 16.1903 39.3086 13.8817 37.25 13.5458C29.1113 12.1601 20.9033 15.8837 12.6211 15.1571C10.582 14.9989 8.79199 16.1845 8.64648 18.2226C8.34863 22.7359 8.34863 27.2639 8.64648 31.7772C8.78418 33.8105 10.6895 36.119 12.748 36.455C20.8867 37.8407 29.0947 34.1171 37.377 34.8437C39.416 35.0019 41.2061 33.8163 41.3516 31.7772C41.6494 27.2639 41.6494 22.7359 41.3516 18.2226Z" fill="url(#paint0_linear_56_1689)"/>
<path d="M24.7938 31L22 26.1625V25.0224H22.9313C23.3038 25.0224 23.6297 24.9711 23.9091 24.8683C24.1988 24.7554 24.4368 24.5962 24.6231 24.3908C24.8197 24.1853 24.9542 23.9388 25.0266 23.6513H22V22.5112H25.0111C24.949 22.2442 24.8404 22.0079 24.6851 21.8025C24.5403 21.5971 24.3437 21.4379 24.0953 21.3249C23.8574 21.2017 23.5676 21.1401 23.2262 21.1401H22V20H29V21.1401H26.5632C26.7391 21.3352 26.884 21.5458 26.9978 21.7717C27.122 21.9977 27.2047 22.2442 27.2461 22.5112H29V23.6513H27.2772C27.1737 24.4113 26.8788 25.007 26.3925 25.4384C25.9061 25.8595 25.2801 26.1471 24.5144 26.3011L27.5565 31H24.7938Z" fill="url(#paint1_linear_56_1689)"/>
<defs>
<linearGradient id="paint0_linear_56_1689" x1="38.0251" y1="31.1411" x2="24.0582" y2="8.11277" gradientUnits="userSpaceOnUse">
<stop stop-color="#0D7E00"/>
<stop offset="0.52" stop-color="#0F8F01"/>
<stop offset="1" stop-color="#97F364"/>
</linearGradient>
<linearGradient id="paint1_linear_56_1689" x1="29.4582" y1="28.4193" x2="23.8799" y2="20.8562" gradientUnits="userSpaceOnUse">
<stop stop-color="#CBF4B4"/>
<stop offset="0.57" stop-color="white"/>
<stop offset="1" stop-color="white"/>
</linearGradient>
</defs>
</svg>
