<svg width="50" height="50" viewBox="0 0 50 50" fill="none" xmlns="http://www.w3.org/2000/svg">
<g clip-path="url(#clip0_56_2098)">
<path d="M48.4883 12.6816C47.1768 7.84961 42.1514 2.82422 37.3193 1.5127C34.3574 0.773437 30.3877 0.0126953 25 0C19.6133 0.0136719 15.6436 0.773437 12.6816 1.5127C7.84961 2.8252 2.82422 7.84961 1.5127 12.6816C0.773437 15.6436 0.0136719 19.6133 0 25C0.0136719 30.3877 0.773437 34.3574 1.5127 37.3193C2.82422 42.1514 7.84961 47.1758 12.6816 48.4883C15.6436 49.2275 19.6152 49.9873 25 50.001C30.3877 49.9873 34.3574 49.2275 37.3193 48.4883C42.1514 47.1758 47.1768 42.1514 48.4883 37.3193C49.2275 34.3574 49.9873 30.3857 50.001 25C49.9873 19.6133 49.2275 15.6436 48.4883 12.6816Z" fill="#B3F0B4" fill-opacity="0.3"/>
<path d="M41.2373 15.1162V15.0664C41.0686 13.4523 40.3499 11.9454 39.2018 10.7985C38.0536 9.65158 36.5459 8.9345 34.9316 8.76758C32.5605 8.52051 28.6611 8.39844 25 8.39844C21.3389 8.39844 17.4395 8.52246 15.0732 8.76953C13.459 8.93645 11.9513 9.65354 10.8031 10.8004C9.65497 11.9474 8.93625 13.4543 8.76758 15.0684V15.1182C8.55762 17.0791 8.39844 17.3936 8.39844 21.5332C8.39844 25.6728 8.55957 26.3408 8.76465 28.3037V28.3525C8.93311 29.9668 9.65174 31.4739 10.7999 32.621C11.9481 33.7682 13.4559 34.4854 15.0703 34.6523C16.376 34.7881 18.1484 34.8867 20.0889 34.9453L23.8564 40.9277C23.9863 41.1341 24.1665 41.3042 24.3799 41.4221C24.5934 41.5399 24.8333 41.6018 25.0771 41.6018C25.321 41.6018 25.5609 41.5399 25.7744 41.4221C25.9878 41.3042 26.1679 41.1341 26.2979 40.9277L30.0674 34.9404C31.9453 34.8789 33.6562 34.7812 34.9248 34.6475C36.5392 34.4805 38.047 33.7633 39.1952 32.6162C40.3434 31.4691 41.062 29.9619 41.2305 28.3477V28.2978C41.4355 26.335 41.5967 25.668 41.5967 21.5283C41.5967 17.3887 41.4424 17.0791 41.2373 15.1162Z" fill="url(#paint0_linear_56_2098)"/>
<path d="M25 31.6846C24.5647 31.6842 24.1394 31.5548 23.7776 31.3127C23.4159 31.0706 23.1341 30.7266 22.9678 30.3244C22.8015 29.9222 22.7582 29.4796 22.8433 29.0528C22.9285 28.6259 23.1383 28.2339 23.4462 27.9262C23.7541 27.6186 24.1463 27.4092 24.5732 27.3244C25.0002 27.2396 25.4427 27.2833 25.8448 27.45C26.2469 27.6166 26.5905 27.8988 26.8323 28.2607C27.0741 28.6226 27.2031 29.0481 27.2031 29.4834C27.2026 30.0674 26.9703 30.6272 26.5572 31.04C26.144 31.4527 25.584 31.6846 25 31.6846ZM27.957 21.5283C26.499 22.668 26.4727 23.4639 26.4727 24.8418C26.4727 25.3457 26.207 25.9297 24.9102 25.9297C23.8232 25.9297 23.4521 25.5313 23.4521 24.1533C23.4521 21.873 24.46 20.7861 25.2285 20.123C26.1074 19.3809 27.5879 18.5605 27.5879 17.127C27.5879 15.9072 26.5273 15.3242 25.2021 15.3242C22.498 15.3242 23.0811 17.3662 21.6494 17.3662C20.9336 17.3662 20.0586 16.8887 20.0586 15.8545C20.0586 14.4229 21.7021 12.3018 25.2813 12.3018C28.6748 12.3018 30.9287 14.1846 30.9287 16.6768C30.9287 19.1689 28.6689 20.9727 27.9531 21.5293L27.957 21.5283Z" fill="url(#paint1_linear_56_2098)"/>
</g>
<defs>
<linearGradient id="paint0_linear_56_2098" x1="38.0419" y1="33.6642" x2="16.0919" y2="7.97812" gradientUnits="userSpaceOnUse">
<stop stop-color="#0D7E00"/>
<stop offset="0.52" stop-color="#0F8F01"/>
<stop offset="1" stop-color="#97F364"/>
</linearGradient>
<linearGradient id="paint1_linear_56_2098" x1="30.8613" y1="26.7324" x2="19.4834" y2="15.3545" gradientUnits="userSpaceOnUse">
<stop stop-color="#BCE4ED"/>
<stop offset="0.57" stop-color="white"/>
<stop offset="1" stop-color="white"/>
</linearGradient>
<clipPath id="clip0_56_2098">
<rect width="50" height="50" fill="white"/>
</clipPath>
</defs>
</svg>
