<svg width="50" height="50" viewBox="0 0 50 50" fill="none" xmlns="http://www.w3.org/2000/svg">
<g clip-path="url(#clip0_56_2107)">
<path d="M48.4883 12.6816C47.1768 7.84961 42.1514 2.82422 37.3193 1.5127C34.3574 0.773437 30.3877 0.0126953 25 0C19.6133 0.0136719 15.6436 0.773437 12.6816 1.5127C7.84961 2.8252 2.82422 7.84961 1.5127 12.6816C0.773437 15.6436 0.0136719 19.6133 0 25C0.0136719 30.3877 0.773437 34.3574 1.5127 37.3193C2.82422 42.1514 7.84961 47.1758 12.6816 48.4883C15.6436 49.2275 19.6152 49.9873 25 50.001C30.3877 49.9873 34.3574 49.2275 37.3193 48.4883C42.1514 47.1758 47.1768 42.1514 48.4883 37.3193C49.2275 34.3574 49.9873 30.3857 50.001 25C49.9873 19.6133 49.2275 15.6436 48.4883 12.6816Z" fill="#B3F0B4" fill-opacity="0.3"/>
<path d="M25 8.42676C21.7219 8.42676 18.5174 9.39884 15.7918 11.2201C13.0661 13.0413 10.9418 15.6299 9.68733 18.6585C8.4329 21.6871 8.10473 25.0197 8.74433 28.2348C9.38393 31.4499 10.9626 34.4032 13.2806 36.7211C15.5987 39.039 18.552 40.6174 21.7671 41.2568C24.9823 41.8963 28.3148 41.5679 31.3434 40.3133C34.3719 39.0587 36.9604 36.9342 38.7814 34.2084C40.6025 31.4827 41.5744 28.2781 41.5742 25C41.5742 22.8235 41.1455 20.6683 40.3126 18.6575C39.4796 16.6466 38.2588 14.8196 36.7197 13.2806C35.1806 11.7416 33.3535 10.5209 31.3426 9.68804C29.3317 8.85521 27.1765 8.42663 25 8.42676Z" fill="url(#paint0_linear_56_2107)"/>
<path d="M31.8115 23.8356C31.1555 24.6309 30.4758 25.4534 29.7912 26.293C29.6549 26.4587 29.5799 26.6643 29.5783 26.8767C29.5783 27.9199 29.555 28.9613 29.5085 30.0009C29.4771 30.6377 28.8155 31.1452 28.2328 30.9622C27.2767 30.6622 26.3004 30.3295 25.3081 29.9757C25.1091 29.905 24.8908 29.905 24.6918 29.9757C23.6995 30.3295 22.7232 30.6622 21.7671 30.9622C21.1844 31.1452 20.5228 30.6377 20.4914 30.0009C20.4449 28.9604 20.4216 27.919 20.4216 26.8767C20.4207 26.6648 20.347 26.4593 20.2122 26.293C19.5269 25.4534 18.8472 24.6309 18.1884 23.8356C17.7837 23.3498 18.0642 22.6327 18.7132 22.4313C19.7698 22.1082 20.8236 21.7796 21.8697 21.4557C22.081 21.39 22.264 21.2579 22.3903 21.0802C23.0232 20.1923 23.6464 19.2984 24.2501 18.4105C24.3288 18.2851 24.4392 18.1815 24.5707 18.1096C24.7023 18.0377 24.8506 18 25.0014 18C25.1521 18 25.3004 18.0377 25.432 18.1096C25.5635 18.1815 25.6739 18.2851 25.7526 18.4105C26.3542 19.295 26.9795 20.1923 27.6124 21.0802C27.7387 21.2579 27.9217 21.39 28.133 21.4557C29.1798 21.7796 30.2329 22.1082 31.2895 22.4313C31.9357 22.6327 32.2162 23.3498 31.8115 23.8356Z" fill="url(#paint1_linear_56_2107)"/>
</g>
<defs>
<linearGradient id="paint0_linear_56_2107" x1="38.0248" y1="33.6508" x2="16.1116" y2="8.00381" gradientUnits="userSpaceOnUse">
<stop stop-color="#0D7E00"/>
<stop offset="0.52" stop-color="#0F8F01"/>
<stop offset="1" stop-color="#97F364"/>
</linearGradient>
<linearGradient id="paint1_linear_56_2107" x1="29.7793" y1="30.1158" x2="20.4609" y2="20.5575" gradientUnits="userSpaceOnUse">
<stop stop-color="#FFDDCE"/>
<stop offset="0.57" stop-color="white"/>
<stop offset="1" stop-color="white"/>
</linearGradient>
<clipPath id="clip0_56_2107">
<rect width="50" height="50" fill="white"/>
</clipPath>
</defs>
</svg>
