<svg width="50" height="50" viewBox="0 0 50 50" fill="none" xmlns="http://www.w3.org/2000/svg">
<path d="M48.4883 12.6816C47.1768 7.84961 42.1514 2.82422 37.3193 1.5127C34.3574 0.773437 30.3877 0.0126953 25 0C19.6133 0.0136719 15.6436 0.773437 12.6816 1.5127C7.84961 2.8252 2.82422 7.84961 1.5127 12.6816C0.773437 15.6436 0.0136719 19.6133 0 25C0.0136719 30.3877 0.773437 34.3574 1.5127 37.3193C2.82422 42.1514 7.84961 47.1758 12.6816 48.4883C15.6436 49.2275 19.6152 49.9873 25 50.001C30.3877 49.9873 34.3574 49.2275 37.3193 48.4883C42.1514 47.1758 47.1768 42.1514 48.4883 37.3193C49.2275 34.3574 49.9873 30.3857 50.001 25C49.9873 19.6133 49.2275 15.6436 48.4883 12.6816Z" fill="#B3F0B4" fill-opacity="0.3"/>
<path d="M24.3437 13.5863C30.5116 13.352 35.7022 18.1615 35.9379 24.3294C36.1738 30.4974 31.3654 35.689 25.1975 35.9261C19.0277 36.1633 13.834 31.3532 13.5982 25.1833C13.3623 19.0133 18.1737 13.8207 24.3437 13.5863Z" fill="url(#paint0_linear_550_2918)"/>
<path d="M10.5429 16.937C10.6073 16.9345 10.6874 16.9346 10.7513 16.942C11.0446 16.9741 11.3126 17.1229 11.495 17.3549C11.6808 17.5911 11.764 17.892 11.7258 18.1901C11.6917 18.4577 11.5269 18.7458 11.416 19.0061C11.3061 19.2624 11.2034 19.5217 11.1081 19.7838C10.7408 20.7946 10.4875 21.8433 10.3528 22.9103C9.86782 26.7403 10.9216 30.6065 13.283 33.6608C15.638 36.7045 19.1097 38.6834 22.9286 39.1586C26.2034 39.5715 29.5213 38.8586 32.3376 37.1369C33.1683 36.6261 33.6262 36.2321 34.3676 35.6565C33.9005 35.6423 33.5131 35.647 33.1627 35.2854C32.9504 35.0665 32.8358 34.7952 32.8438 34.4886C32.8519 34.1807 32.9854 33.8897 33.2133 33.6827C33.4864 33.4307 33.7694 33.3797 34.1323 33.3942L36.1422 33.4945C36.5496 33.5143 37.0643 33.5116 37.4555 33.5978C37.6424 33.6523 37.8246 33.7791 37.9537 33.9171C38.3433 34.3336 38.2271 34.9332 38.195 35.465L38.1202 36.7146L38.0771 37.4793C38.0495 37.9487 38.0566 38.3383 37.6753 38.6834C37.4642 38.8743 37.1615 38.9907 36.8755 38.973C36.5697 38.955 36.2843 38.8142 36.0837 38.5826C35.7474 38.1951 35.8117 37.798 35.8465 37.3261C33.3917 39.4865 30.362 40.8872 27.126 41.3579C22.6985 41.9838 18.2041 40.8207 14.6364 38.1252C11.0923 35.4341 8.76209 31.4454 8.15793 27.0366C7.77057 24.233 8.09854 21.3769 9.11132 18.734C9.26868 18.3263 9.50507 17.7103 9.74951 17.3502C9.93398 17.0784 10.228 16.9787 10.5429 16.937Z" fill="url(#paint1_linear_550_2918)"/>
<path d="M24.2746 8.01094C25.3714 7.96337 26.6906 8.0749 27.7668 8.26816C32.1326 9.05036 36.0072 11.539 38.5341 15.184C41.0772 18.8651 42.0563 23.4047 41.2568 27.8068C41.0496 28.9486 40.7217 30.0651 40.2787 31.1376C40.1978 31.3361 40.0571 31.6976 39.9448 31.8709C39.8594 32.0035 39.7481 32.1175 39.6179 32.2066C39.3756 32.3698 39.0783 32.4297 38.7918 32.373C38.5 32.3162 38.2428 32.1458 38.0767 31.8993C37.805 31.4937 37.8609 31.0639 38.0571 30.6437C38.196 30.3462 38.3174 30.0291 38.4293 29.721C38.6857 29.0143 38.8861 28.2886 39.0288 27.5505C39.789 23.6406 38.9189 19.7493 36.6983 16.4622C36.4607 16.121 36.2088 15.7897 35.9436 15.4694C33.4661 12.4811 29.8896 10.6164 26.021 10.2961C22.9614 10.0409 19.8989 10.7525 17.2653 12.3307C16.3351 12.8973 15.8461 13.3075 15.0383 13.9834C15.4967 13.9938 15.8594 13.9674 16.2195 14.2997C16.4378 14.4991 16.5653 14.779 16.5724 15.0747C16.5823 15.3755 16.4704 15.6676 16.2621 15.8849C16.0302 16.1274 15.7461 16.2342 15.4129 16.2329C14.4998 16.2295 13.5901 16.1513 12.6771 16.1463C12.468 16.1451 12.2652 16.1351 12.061 16.0902C11.5187 15.971 11.1614 15.4978 11.1825 14.9455C11.1911 14.6841 11.2054 14.4276 11.2181 14.1685L11.2799 12.8628C11.2969 12.5311 11.3053 11.7993 11.3727 11.5294C11.4202 11.3347 11.5209 11.1571 11.6636 11.0165C12.1018 10.585 12.842 10.5854 13.2672 11.0425C13.6201 11.422 13.5677 11.8309 13.5503 12.3117C13.7421 12.1667 13.9752 11.9427 14.173 11.7802C14.5785 11.448 14.9993 11.1348 15.4338 10.8415C18.0583 9.0903 21.1211 8.10972 24.2746 8.01094Z" fill="url(#paint2_linear_550_2918)"/>
<path d="M24.2356 31.0467L21.084 25.6071V24.3252H22.1345C22.5547 24.3252 22.9224 24.2674 23.2376 24.152C23.5644 24.0249 23.8329 23.8459 24.043 23.6149C24.2648 23.3839 24.4165 23.1068 24.4982 22.7834H21.084V21.5015H24.4807C24.4107 21.2012 24.2881 20.9356 24.113 20.7046C23.9496 20.4736 23.7278 20.2946 23.4477 20.1676C23.1792 20.029 22.8524 19.9597 22.4672 19.9597H21.084V18.6777H28.9806V19.9597H26.2316C26.4301 20.1791 26.5935 20.4159 26.7219 20.6699C26.862 20.924 26.9553 21.2012 27.002 21.5015H28.9806V22.7834H27.0371C26.9203 23.638 26.5877 24.3079 26.039 24.7929C25.4904 25.2664 24.7842 25.5898 23.9204 25.763L27.3522 31.0467H24.2356Z" fill="url(#paint3_linear_550_2918)"/>
<defs>
<linearGradient id="paint0_linear_550_2918" x1="33.5524" y1="30.59" x2="18.7734" y2="13.2929" gradientUnits="userSpaceOnUse">
<stop stop-color="#0D7E00"/>
<stop offset="0.52" stop-color="#0F8F01"/>
<stop offset="1" stop-color="#97F364"/>
</linearGradient>
<linearGradient id="paint1_linear_550_2918" x1="34.9987" y1="35.6456" x2="19.5766" y2="13.4493" gradientUnits="userSpaceOnUse">
<stop stop-color="#0D7E00"/>
<stop offset="0.52" stop-color="#0F8F01"/>
<stop offset="1" stop-color="#97F364"/>
</linearGradient>
<linearGradient id="paint2_linear_550_2918" x1="38.2793" y1="26.5623" x2="23.0416" y2="4.37585" gradientUnits="userSpaceOnUse">
<stop stop-color="#0D7E00"/>
<stop offset="0.52" stop-color="#0F8F01"/>
<stop offset="1" stop-color="#97F364"/>
</linearGradient>
<linearGradient id="paint3_linear_550_2918" x1="29.4974" y1="28.1449" x2="23.2309" y2="19.6212" gradientUnits="userSpaceOnUse">
<stop stop-color="#CBF4B4"/>
<stop offset="0.57" stop-color="white"/>
<stop offset="1" stop-color="white"/>
</linearGradient>
</defs>
</svg>
