<svg width="230" height="31" viewBox="0 0 230 31" fill="none" xmlns="http://www.w3.org/2000/svg">
<path d="M10.79 4.31641C9.47686 4.31641 8.19322 4.70579 7.1014 5.43533C6.00957 6.16486 5.1586 7.20178 4.65608 8.41495C4.15357 9.62812 4.02209 10.9631 4.27827 12.251C4.53445 13.5389 5.16678 14.7219 6.0953 15.6504C7.02382 16.5789 8.20683 17.2112 9.49473 17.4674C10.7826 17.7236 12.1176 17.5921 13.3307 17.0896C14.5439 16.5871 15.5808 15.7361 16.3104 14.6443C17.0399 13.5525 17.4293 12.2688 17.4293 10.9557C17.4293 9.19485 16.7298 7.50612 15.4847 6.26101C14.2396 5.0159 12.5508 4.31641 10.79 4.31641ZM10.79 14.2753C10.1334 14.2753 9.49161 14.0806 8.94569 13.7159C8.39978 13.3511 7.97429 12.8327 7.72304 12.2261C7.47178 11.6195 7.40604 10.952 7.53413 10.3081C7.66222 9.66412 7.97839 9.07261 8.44265 8.60835C8.90691 8.14409 9.49841 7.82793 10.1424 7.69984C10.7863 7.57175 11.4538 7.63749 12.0604 7.88874C12.6669 8.14 13.1854 8.56549 13.5502 9.1114C13.9149 9.65731 14.1096 10.2991 14.1096 10.9557C14.1096 11.8361 13.7599 12.6805 13.1373 13.303C12.5148 13.9256 11.6704 14.2753 10.79 14.2753Z" fill="#DC8E2B"/>
<path d="M10.79 14.275C12.6234 14.275 14.1096 12.7888 14.1096 10.9554C14.1096 9.122 12.6234 7.63574 10.79 7.63574C8.95659 7.63574 7.47034 9.122 7.47034 10.9554C7.47034 12.7888 8.95659 14.275 10.79 14.275Z" fill="#FFECBE"/>
<path d="M18.1845 18.79L21.5788 26.724L16.5994 25.8941L14.1096 30.0436L10.79 21.7445C11.5112 21.7482 12.2064 21.4749 12.732 20.981C13.0828 20.6567 13.5024 20.4159 13.9594 20.2765C14.4164 20.1371 14.899 20.1028 15.3711 20.176C16.0755 20.2669 16.7884 20.0923 17.3712 19.6863C17.7068 19.4532 17.9849 19.1467 18.1845 18.79Z" fill="#DC8E2B"/>
<path d="M10.79 21.7445L7.47036 30.0436L4.98063 25.8941L0.00115967 26.724L3.3955 18.79C3.59504 19.1467 3.87317 19.4532 4.20881 19.6863C4.79155 20.0923 5.50452 20.2669 6.2089 20.176C6.68102 20.1028 7.16359 20.1371 7.62057 20.2765C8.07755 20.4159 8.49714 20.6567 8.84801 20.981C9.37363 21.4749 10.0688 21.7482 10.79 21.7445Z" fill="#DC8E2B"/>
<path d="M20.9647 10.9558C20.9664 11.4151 21.0773 11.8674 21.2884 12.2754C21.4504 12.5832 21.5473 12.9212 21.573 13.2681C21.5987 13.6151 21.5527 13.9637 21.4377 14.292C21.3405 14.5888 21.1885 14.8646 20.9896 15.1054C20.7448 15.4084 20.4395 15.6571 20.0933 15.8357C19.6722 16.0441 19.3062 16.3488 19.0251 16.7252C18.7439 17.1015 18.5554 17.5389 18.475 18.0017C18.423 18.279 18.3249 18.5455 18.1845 18.7902C17.9849 19.1468 17.7068 19.4533 17.3712 19.6865C16.7884 20.0924 16.0755 20.267 15.3711 20.1761C14.899 20.1029 14.4164 20.1372 13.9594 20.2766C13.5024 20.416 13.0828 20.6568 12.732 20.9811C12.2043 21.4718 11.5105 21.7446 10.79 21.7446C10.0694 21.7446 9.37561 21.4718 8.84798 20.9811C8.49712 20.6568 8.07753 20.416 7.62054 20.2766C7.16356 20.1372 6.68099 20.1029 6.20887 20.1761C5.5045 20.267 4.79152 20.0924 4.20878 19.6865C3.87314 19.4533 3.59501 19.1468 3.39547 18.7902C3.2551 18.5455 3.15691 18.279 3.105 18.0017C3.02455 17.5389 2.83608 17.1015 2.55489 16.7252C2.27371 16.3488 1.90773 16.0441 1.48667 15.8357C1.14042 15.6571 0.835164 15.4084 0.590368 15.1054C0.391481 14.8646 0.239473 14.5888 0.142217 14.292C0.0272751 13.9637 -0.0187807 13.6151 0.00692072 13.2681C0.0326221 12.9212 0.12953 12.5832 0.291601 12.2754C0.504237 11.868 0.615282 11.4153 0.615282 10.9558C0.615282 10.4963 0.504237 10.0436 0.291601 9.63624C0.12953 9.32837 0.0326221 8.99042 0.00692072 8.64345C-0.0187807 8.29648 0.0272751 7.94794 0.142217 7.61955C0.372228 6.94955 0.854587 6.39573 1.48667 6.07592C1.90773 5.86753 2.27371 5.56279 2.55489 5.18643C2.83608 4.81007 3.02455 4.37271 3.105 3.90985C3.23677 3.22486 3.63339 2.61948 4.20878 2.22513C4.79152 1.81916 5.5045 1.64462 6.20887 1.73548C6.68099 1.80872 7.16356 1.77436 7.62054 1.63497C8.07753 1.49558 8.49712 1.25475 8.84798 0.930471C9.37561 0.439765 10.0694 0.166992 10.79 0.166992C11.5105 0.166992 12.2043 0.439765 12.732 0.930471C13.0828 1.25475 13.5024 1.49558 13.9594 1.63497C14.4164 1.77436 14.899 1.80872 15.3711 1.73548C16.0755 1.64462 16.7884 1.81916 17.3712 2.22513C17.9466 2.61948 18.3432 3.22486 18.475 3.90985C18.5554 4.37271 18.7439 4.81007 19.0251 5.18643C19.3062 5.56279 19.6722 5.86753 20.0933 6.07592C20.7254 6.39573 21.2077 6.94955 21.4377 7.61955C21.5527 7.94794 21.5987 8.29648 21.573 8.64345C21.5473 8.99042 21.4504 9.32837 21.2884 9.63624C21.0773 10.0442 20.9664 10.4965 20.9647 10.9558ZM17.4293 10.9558C17.4293 9.64267 17.0399 8.35903 16.3103 7.26721C15.5808 6.17538 14.5439 5.32441 13.3307 4.82189C12.1176 4.31938 10.7826 4.1879 9.49472 4.44408C8.20682 4.70026 7.02381 5.33259 6.09529 6.26111C5.16677 7.18963 4.53444 8.37264 4.27826 9.66054C4.02208 10.9484 4.15356 12.2834 4.65607 13.4965C5.15859 14.7097 6.00956 15.7466 7.10139 16.4762C8.19321 17.2057 9.47685 17.5951 10.79 17.5951C12.5508 17.5951 14.2396 16.8956 15.4847 15.6505C16.7298 14.4054 17.4293 12.7166 17.4293 10.9558Z" fill="#FFB700"/>
<path d="M35.624 4.392C35.448 4.4 35.296 4.424 35.168 4.464C35.04 4.504 34.94 4.596 34.868 4.74C34.804 4.876 34.772 5.108 34.772 5.436V10.032C34.772 10.248 34.768 10.456 34.76 10.656C34.752 10.856 34.74 11.008 34.724 11.112C34.852 11.096 35.012 11.088 35.204 11.088C35.404 11.08 35.544 11.076 35.624 11.076V12H32.18V11.208C32.364 11.2 32.516 11.176 32.636 11.136C32.764 11.096 32.86 11.004 32.924 10.86C32.996 10.716 33.032 10.484 33.032 10.164V5.568C33.032 5.352 33.036 5.144 33.044 4.944C33.06 4.744 33.072 4.592 33.08 4.488C32.952 4.496 32.792 4.504 32.6 4.512C32.408 4.512 32.268 4.516 32.18 4.524V3.6H35.624V4.392ZM41.6686 6.288C41.5966 5.84 41.4686 5.468 41.2846 5.172C41.1006 4.868 40.8646 4.64 40.5766 4.488C40.2966 4.336 39.9686 4.264 39.5926 4.272C39.2486 4.272 38.9446 4.368 38.6806 4.56C38.4246 4.752 38.2966 5 38.2966 5.304C38.2966 5.552 38.3646 5.768 38.5006 5.952C38.6446 6.136 38.8606 6.308 39.1486 6.468C39.4366 6.628 39.8006 6.8 40.2406 6.984C40.5446 7.104 40.8566 7.244 41.1766 7.404C41.4966 7.564 41.7926 7.756 42.0646 7.98C42.3366 8.196 42.5566 8.452 42.7246 8.748C42.8926 9.036 42.9766 9.376 42.9766 9.768C42.9766 10.24 42.8486 10.66 42.5926 11.028C42.3366 11.396 41.9766 11.684 41.5126 11.892C41.0566 12.092 40.5206 12.192 39.9046 12.192C39.5846 12.192 39.2366 12.14 38.8606 12.036C38.4926 11.94 38.1446 11.796 37.8166 11.604L37.8526 12.108H36.9286V9.3H37.7206C37.8326 9.972 38.0886 10.48 38.4886 10.824C38.8966 11.16 39.3806 11.328 39.9406 11.328C40.2286 11.328 40.4806 11.276 40.6966 11.172C40.9126 11.068 41.0806 10.932 41.2006 10.764C41.3206 10.588 41.3806 10.4 41.3806 10.2C41.3806 9.92 41.2806 9.688 41.0806 9.504C40.8886 9.32 40.6446 9.164 40.3486 9.036C40.0606 8.908 39.7646 8.784 39.4606 8.664C39.0766 8.504 38.7166 8.336 38.3806 8.16C38.0526 7.976 37.7646 7.768 37.5166 7.536C37.2686 7.304 37.0766 7.04 36.9406 6.744C36.8046 6.44 36.7366 6.092 36.7366 5.7C36.7366 5.452 36.7846 5.196 36.8806 4.932C36.9766 4.66 37.1326 4.412 37.3486 4.188C37.5646 3.956 37.8526 3.768 38.2126 3.624C38.5726 3.48 39.0166 3.408 39.5446 3.408C39.8646 3.408 40.2126 3.456 40.5886 3.552C40.9726 3.648 41.3006 3.792 41.5726 3.984L41.5246 3.492H42.4606V6.288H41.6686ZM47.9885 12.192C47.2285 12.192 46.5805 12.064 46.0445 11.808C45.5165 11.552 45.0885 11.212 44.7605 10.788C44.4325 10.356 44.1925 9.88 44.0405 9.36C43.8885 8.84 43.8125 8.32 43.8125 7.8C43.8125 7.296 43.8965 6.788 44.0645 6.276C44.2405 5.756 44.5005 5.28 44.8445 4.848C45.1965 4.416 45.6365 4.068 46.1645 3.804C46.6925 3.54 47.3125 3.408 48.0245 3.408C48.7525 3.408 49.3805 3.54 49.9085 3.804C50.4365 4.068 50.8685 4.42 51.2045 4.86C51.5405 5.292 51.7885 5.764 51.9485 6.276C52.1165 6.788 52.2005 7.296 52.2005 7.8C52.2005 8.296 52.1125 8.8 51.9365 9.312C51.7685 9.824 51.5085 10.3 51.1565 10.74C50.8125 11.172 50.3765 11.524 49.8485 11.796C49.3205 12.06 48.7005 12.192 47.9885 12.192ZM48.1205 11.316C48.5365 11.316 48.8845 11.216 49.1645 11.016C49.4445 10.808 49.6685 10.54 49.8365 10.212C50.0045 9.884 50.1245 9.528 50.1965 9.144C50.2685 8.752 50.3045 8.372 50.3045 8.004C50.3045 7.452 50.2565 6.948 50.1605 6.492C50.0645 6.036 49.9165 5.644 49.7165 5.316C49.5165 4.98 49.2605 4.724 48.9485 4.548C48.6445 4.364 48.2845 4.276 47.8685 4.284C47.4605 4.292 47.1165 4.404 46.8365 4.62C46.5565 4.828 46.3325 5.1 46.1645 5.436C45.9965 5.764 45.8765 6.124 45.8045 6.516C45.7325 6.908 45.6965 7.288 45.6965 7.656C45.6965 8.032 45.7365 8.432 45.8165 8.856C45.9045 9.28 46.0405 9.68 46.2245 10.056C46.4085 10.432 46.6565 10.736 46.9685 10.968C47.2805 11.2 47.6645 11.316 48.1205 11.316ZM56.2355 12C56.2355 11.584 56.2875 11.212 56.3915 10.884C56.5035 10.556 56.6475 10.26 56.8235 9.996C57.0075 9.732 57.2075 9.488 57.4235 9.264C57.6475 9.04 57.8755 8.82 58.1075 8.604C58.6915 8.06 59.1035 7.568 59.3435 7.128C59.5915 6.688 59.7155 6.252 59.7155 5.82C59.7155 5.564 59.6835 5.316 59.6195 5.076C59.5555 4.836 59.4395 4.64 59.2715 4.488C59.1035 4.328 58.8675 4.252 58.5635 4.26C58.3475 4.26 58.1515 4.312 57.9755 4.416C57.8075 4.512 57.6795 4.628 57.5915 4.764C57.6795 4.852 57.7395 4.956 57.7715 5.076C57.8115 5.196 57.8315 5.3 57.8315 5.388C57.8315 5.476 57.8035 5.584 57.7475 5.712C57.6915 5.832 57.6035 5.936 57.4835 6.024C57.3715 6.112 57.2155 6.156 57.0155 6.156C56.7675 6.14 56.5755 6.048 56.4395 5.88C56.3115 5.712 56.2475 5.512 56.2475 5.28C56.2475 5.096 56.3035 4.9 56.4155 4.692C56.5275 4.476 56.6955 4.272 56.9195 4.08C57.1435 3.88 57.4155 3.72 57.7355 3.6C58.0635 3.472 58.4395 3.408 58.8635 3.408C59.1835 3.408 59.4995 3.448 59.8115 3.528C60.1315 3.608 60.4235 3.736 60.6875 3.912C60.9515 4.088 61.1595 4.32 61.3115 4.608C61.4715 4.896 61.5515 5.252 61.5515 5.676C61.5515 5.876 61.5155 6.088 61.4435 6.312C61.3715 6.528 61.2395 6.768 61.0475 7.032C60.8555 7.288 60.5875 7.584 60.2435 7.92C59.8995 8.256 59.4555 8.648 58.9115 9.096C58.4715 9.456 58.1475 9.784 57.9395 10.08C57.7315 10.376 57.6075 10.604 57.5675 10.764L59.9195 10.824C60.1035 10.832 60.2595 10.82 60.3875 10.788C60.5235 10.748 60.6275 10.672 60.6995 10.56C60.7795 10.44 60.8195 10.268 60.8195 10.044H61.5875L61.4915 12H56.2355ZM64.5659 12.192C64.3179 12.192 64.1419 12.12 64.0379 11.976C63.9419 11.832 63.8939 11.672 63.8939 11.496C63.8939 11.336 63.9299 11.132 64.0019 10.884C64.0819 10.636 64.1819 10.364 64.3019 10.068C64.4219 9.764 64.5459 9.464 64.6739 9.168C64.8099 8.848 64.9659 8.48 65.1419 8.064C65.3179 7.648 65.5219 7.172 65.7539 6.636C65.9859 6.1 66.2459 5.492 66.5339 4.812L64.0139 4.788C63.7419 4.78 63.5219 4.84 63.3539 4.968C63.1859 5.088 63.1019 5.312 63.1019 5.64H62.3459L62.4299 3.6H67.5419V4.692C67.2699 5.244 67.0339 5.78 66.8339 6.3C66.6419 6.82 66.4659 7.34 66.3059 7.86C66.1539 8.38 66.0059 8.92 65.8619 9.48C65.7259 10.04 65.5779 10.64 65.4179 11.28C65.3619 11.504 65.2619 11.716 65.1179 11.916C64.9819 12.108 64.7979 12.2 64.5659 12.192ZM71.6069 12.192C70.9989 12.192 70.4829 12.064 70.0589 11.808C69.6349 11.544 69.2949 11.2 69.0389 10.776C68.7829 10.344 68.5949 9.872 68.4749 9.36C68.3629 8.848 68.3069 8.34 68.3069 7.836C68.3069 7.332 68.3749 6.82 68.5109 6.3C68.6549 5.78 68.8669 5.304 69.1469 4.872C69.4269 4.432 69.7749 4.08 70.1909 3.816C70.6069 3.544 71.0949 3.408 71.6549 3.408C72.2389 3.408 72.7349 3.54 73.1429 3.804C73.5589 4.068 73.8949 4.416 74.1509 4.848C74.4069 5.272 74.5949 5.74 74.7149 6.252C74.8349 6.764 74.8949 7.272 74.8949 7.776C74.8949 8.272 74.8269 8.78 74.6909 9.3C74.5629 9.82 74.3629 10.3 74.0909 10.74C73.8189 11.172 73.4749 11.524 73.0589 11.796C72.6509 12.06 72.1669 12.192 71.6069 12.192ZM71.6789 11.34C71.9589 11.34 72.1909 11.252 72.3749 11.076C72.5589 10.9 72.6989 10.66 72.7949 10.356C72.8989 10.044 72.9709 9.688 73.0109 9.288C73.0509 8.888 73.0709 8.468 73.0709 8.028C73.0709 7.54 73.0509 7.072 73.0109 6.624C72.9789 6.168 72.9109 5.764 72.8069 5.412C72.7109 5.052 72.5669 4.768 72.3749 4.56C72.1909 4.352 71.9429 4.248 71.6309 4.248C71.3429 4.248 71.1029 4.336 70.9109 4.512C70.7189 4.688 70.5629 4.932 70.4429 5.244C70.3309 5.556 70.2509 5.912 70.2029 6.312C70.1549 6.712 70.1309 7.136 70.1309 7.584C70.1309 7.92 70.1389 8.264 70.1549 8.616C70.1789 8.968 70.2189 9.308 70.2749 9.636C70.3389 9.956 70.4269 10.244 70.5389 10.5C70.6509 10.756 70.7989 10.96 70.9829 11.112C71.1749 11.264 71.4069 11.34 71.6789 11.34ZM79.2358 12.192C78.6278 12.192 78.1118 12.064 77.6878 11.808C77.2638 11.544 76.9238 11.2 76.6678 10.776C76.4118 10.344 76.2238 9.872 76.1038 9.36C75.9918 8.848 75.9358 8.34 75.9358 7.836C75.9358 7.332 76.0038 6.82 76.1398 6.3C76.2838 5.78 76.4958 5.304 76.7758 4.872C77.0558 4.432 77.4038 4.08 77.8198 3.816C78.2358 3.544 78.7238 3.408 79.2838 3.408C79.8678 3.408 80.3638 3.54 80.7718 3.804C81.1878 4.068 81.5238 4.416 81.7798 4.848C82.0358 5.272 82.2238 5.74 82.3438 6.252C82.4638 6.764 82.5238 7.272 82.5238 7.776C82.5238 8.272 82.4558 8.78 82.3198 9.3C82.1918 9.82 81.9918 10.3 81.7198 10.74C81.4478 11.172 81.1038 11.524 80.6878 11.796C80.2798 12.06 79.7958 12.192 79.2358 12.192ZM79.3078 11.34C79.5878 11.34 79.8198 11.252 80.0038 11.076C80.1878 10.9 80.3278 10.66 80.4238 10.356C80.5278 10.044 80.5998 9.688 80.6398 9.288C80.6798 8.888 80.6998 8.468 80.6998 8.028C80.6998 7.54 80.6798 7.072 80.6398 6.624C80.6078 6.168 80.5398 5.764 80.4358 5.412C80.3398 5.052 80.1958 4.768 80.0038 4.56C79.8198 4.352 79.5718 4.248 79.2598 4.248C78.9718 4.248 78.7318 4.336 78.5398 4.512C78.3478 4.688 78.1918 4.932 78.0718 5.244C77.9598 5.556 77.8798 5.912 77.8318 6.312C77.7838 6.712 77.7598 7.136 77.7598 7.584C77.7598 7.92 77.7678 8.264 77.7838 8.616C77.8078 8.968 77.8478 9.308 77.9038 9.636C77.9678 9.956 78.0558 10.244 78.1678 10.5C78.2798 10.756 78.4278 10.96 78.6118 11.112C78.8038 11.264 79.0358 11.34 79.3078 11.34ZM84.0087 12V11.208C84.1927 11.2 84.3447 11.176 84.4647 11.136C84.5927 11.096 84.6887 11.004 84.7527 10.86C84.8247 10.716 84.8607 10.484 84.8607 10.164V5.352L83.5527 6.132L83.1207 5.412L85.8687 3.408H86.5887V10.032C86.5887 10.248 86.5847 10.456 86.5767 10.656C86.5767 10.856 86.5687 11.008 86.5527 11.112C86.6807 11.096 86.8407 11.088 87.0327 11.088C87.2327 11.08 87.3727 11.076 87.4527 11.076V12H84.0087Z" fill="#010101" fill-opacity="0.6"/>
<path d="M37.66 22.4409C37.5933 21.8143 37.3733 21.3276 37 20.9809C36.6333 20.6343 36.16 20.4609 35.58 20.4609C35.2266 20.4609 34.8933 20.5376 34.58 20.6909C34.2733 20.8376 34.0033 21.0509 33.77 21.3309C33.5366 21.6109 33.3533 21.9476 33.22 22.3409C33.0866 22.7343 33.02 23.1776 33.02 23.6709C33.02 24.2976 33.14 24.8509 33.38 25.3309C33.62 25.8109 33.9433 26.1843 34.35 26.4509C34.7566 26.7176 35.2066 26.8509 35.7 26.8509C36.1333 26.8509 36.56 26.7543 36.98 26.5609C37.4 26.3609 37.7433 26.0743 38.01 25.7009L38.27 25.9109C37.9833 26.3043 37.6733 26.6076 37.34 26.8209C37.0066 27.0343 36.6733 27.1776 36.34 27.2509C36.0133 27.3309 35.7133 27.3709 35.44 27.3709C34.94 27.3709 34.48 27.2809 34.06 27.1009C33.6466 26.9209 33.2866 26.6709 32.98 26.3509C32.68 26.0243 32.4466 25.6476 32.28 25.2209C32.12 24.7876 32.04 24.3209 32.04 23.8209C32.04 23.3476 32.11 22.8876 32.25 22.4409C32.3966 21.9943 32.6133 21.5909 32.9 21.2309C33.1866 20.8709 33.5466 20.5843 33.98 20.3709C34.42 20.1576 34.93 20.0509 35.51 20.0509C35.8833 20.0509 36.2366 20.1009 36.57 20.2009C36.9033 20.3009 37.2233 20.4543 37.53 20.6609L37.48 20.1209H38.02V22.4409H37.66ZM41.4321 27.3709C40.9721 27.3709 40.5555 27.2643 40.1821 27.0509C39.8155 26.8309 39.5255 26.5243 39.3121 26.1309C39.0988 25.7309 38.9921 25.2609 38.9921 24.7209C38.9921 24.2543 39.0955 23.8176 39.3021 23.4109C39.5155 23.0043 39.8121 22.6776 40.1921 22.4309C40.5721 22.1776 41.0121 22.0509 41.5121 22.0509C41.7921 22.0509 42.0521 22.0976 42.2921 22.1909C42.5388 22.2776 42.7555 22.4143 42.9421 22.6009C43.1288 22.7809 43.2755 23.0109 43.3821 23.2909C43.4888 23.5643 43.5421 23.8876 43.5421 24.2609L40.0221 24.3209C40.0221 24.8276 40.0755 25.2743 40.1821 25.6609C40.2955 26.0409 40.4755 26.3376 40.7221 26.5509C40.9688 26.7576 41.2855 26.8609 41.6721 26.8609C41.8788 26.8609 42.0888 26.8243 42.3021 26.7509C42.5221 26.6776 42.7255 26.5776 42.9121 26.4509C43.0988 26.3243 43.2488 26.1843 43.3621 26.0309L43.6021 26.2309C43.4221 26.5109 43.2055 26.7343 42.9521 26.9009C42.6988 27.0676 42.4388 27.1876 42.1721 27.2609C41.9055 27.3343 41.6588 27.3709 41.4321 27.3709ZM40.0521 23.9009H42.6021C42.6021 23.6609 42.5655 23.4309 42.4921 23.2109C42.4255 22.9843 42.3121 22.8009 42.1521 22.6609C41.9921 22.5143 41.7821 22.4409 41.5221 22.4409C41.1355 22.4409 40.8121 22.5576 40.5521 22.7909C40.2988 23.0176 40.1321 23.3876 40.0521 23.9009ZM44.4321 26.9109C44.6387 26.9109 44.7821 26.8609 44.8621 26.7609C44.9421 26.6543 44.9887 26.5109 45.0021 26.3309C45.0154 26.1443 45.0221 25.9309 45.0221 25.6909V23.4109C45.0221 23.3043 45.0221 23.1976 45.0221 23.0909C45.0287 22.9843 45.0421 22.8743 45.0621 22.7609C44.9421 22.7676 44.8221 22.7743 44.7021 22.7809C44.5887 22.7809 44.4721 22.7843 44.3521 22.7909V22.3809H44.6621C44.9487 22.3809 45.1454 22.3543 45.2521 22.3009C45.3654 22.2409 45.4587 22.1776 45.5321 22.1109H45.8221C45.8354 22.2176 45.8454 22.3509 45.8521 22.5109C45.8587 22.6643 45.8654 22.8609 45.8721 23.1009C45.9721 22.9343 46.1087 22.7709 46.2821 22.6109C46.4554 22.4509 46.6487 22.3176 46.8621 22.2109C47.0821 22.1043 47.3121 22.0509 47.5521 22.0509C47.7387 22.0509 47.9021 22.1009 48.0421 22.2009C48.1821 22.3009 48.2521 22.4609 48.2521 22.6809C48.2521 22.7343 48.2354 22.8009 48.2021 22.8809C48.1687 22.9543 48.1154 23.0209 48.0421 23.0809C47.9687 23.1343 47.8721 23.1609 47.7521 23.1609C47.6054 23.1543 47.4887 23.0976 47.4021 22.9909C47.3154 22.8776 47.2821 22.7476 47.3021 22.6009C47.1354 22.5943 46.9621 22.6376 46.7821 22.7309C46.6087 22.8243 46.4454 22.9543 46.2921 23.1209C46.1387 23.2809 46.0021 23.4709 45.8821 23.6909L45.8921 26.1509C45.8921 26.2843 45.8887 26.4043 45.8821 26.5109C45.8821 26.6109 45.8721 26.7176 45.8521 26.8309C45.9587 26.8243 46.0621 26.8209 46.1621 26.8209C46.2687 26.8143 46.3754 26.8076 46.4821 26.8009V27.2109H44.4321V26.9109ZM50.7066 27.3709C50.5533 27.3709 50.3966 27.3476 50.2366 27.3009C50.0766 27.2609 49.9266 27.1776 49.7866 27.0509C49.6533 26.9243 49.5466 26.7409 49.4666 26.5009C49.3866 26.2543 49.3466 25.9309 49.3466 25.5309L49.3666 22.6309L48.5966 22.6409V22.2109C48.7699 22.2043 48.9466 22.1409 49.1266 22.0209C49.3066 21.8943 49.4666 21.7243 49.6066 21.5109C49.7533 21.2976 49.8533 21.0643 49.9066 20.8109H50.2466V22.2109H51.9266V22.6009L50.2466 22.6209L50.2266 25.4009C50.2266 25.7009 50.2499 25.9576 50.2966 26.1709C50.3499 26.3776 50.4333 26.5343 50.5466 26.6409C50.6599 26.7476 50.8066 26.8009 50.9866 26.8009C51.1733 26.8009 51.3466 26.7476 51.5066 26.6409C51.6733 26.5343 51.8199 26.3876 51.9466 26.2009L52.2166 26.4209C52.0699 26.6409 51.9233 26.8143 51.7766 26.9409C51.6366 27.0676 51.4999 27.1609 51.3666 27.2209C51.2333 27.2876 51.1099 27.3276 50.9966 27.3409C50.8833 27.3609 50.7866 27.3709 50.7066 27.3709ZM52.6938 26.9109C52.9005 26.9109 53.0438 26.8609 53.1238 26.7609C53.2038 26.6543 53.2505 26.5109 53.2638 26.3309C53.2771 26.1443 53.2838 25.9309 53.2838 25.6909V23.4109C53.2838 23.3043 53.2871 23.2043 53.2938 23.1109C53.3005 23.0109 53.3105 22.8943 53.3238 22.7609C53.2038 22.7676 53.0838 22.7743 52.9638 22.7809C52.8505 22.7876 52.7338 22.7943 52.6138 22.8009V22.3809C52.9071 22.3809 53.1338 22.3676 53.2938 22.3409C53.4538 22.3143 53.5738 22.2809 53.6538 22.2409C53.7405 22.2009 53.8071 22.1576 53.8538 22.1109H54.1438V26.1509C54.1438 26.2843 54.1405 26.4043 54.1338 26.5109C54.1338 26.6109 54.1238 26.7176 54.1038 26.8309C54.2105 26.8243 54.3138 26.8209 54.4138 26.8209C54.5205 26.8143 54.6271 26.8076 54.7338 26.8009V27.2109H52.6938V26.9109ZM53.6538 21.1209C53.5138 21.1209 53.3905 21.0643 53.2838 20.9509C53.1771 20.8376 53.1238 20.6976 53.1238 20.5309C53.1238 20.3643 53.1771 20.2243 53.2838 20.1109C53.3971 19.9909 53.5238 19.9309 53.6638 19.9309C53.8171 19.9309 53.9438 19.9909 54.0438 20.1109C54.1505 20.2243 54.2038 20.3643 54.2038 20.5309C54.2038 20.6976 54.1471 20.8376 54.0338 20.9509C53.9271 21.0643 53.8005 21.1209 53.6538 21.1209ZM55.5663 27.2109V26.9109C55.773 26.9109 55.9163 26.8609 55.9963 26.7609C56.0763 26.6543 56.123 26.5109 56.1363 26.3309C56.1496 26.1443 56.1563 25.9309 56.1563 25.6909L56.1363 22.6409L55.3163 22.6609V22.2109H56.1363C56.1363 21.3776 56.3363 20.7376 56.7363 20.2909C57.143 19.8376 57.7196 19.6109 58.4663 19.6109C58.813 19.6109 59.1263 19.6476 59.4063 19.7209C59.693 19.7943 59.923 19.8976 60.0963 20.0309C60.2696 20.1643 60.3563 20.3176 60.3563 20.4909C60.3563 20.6176 60.3196 20.7276 60.2463 20.8209C60.173 20.9143 60.0663 20.9609 59.9263 20.9609C59.7596 20.9676 59.643 20.9209 59.5763 20.8209C59.5096 20.7143 59.4763 20.6209 59.4763 20.5409C59.4763 20.4943 59.4796 20.4476 59.4863 20.4009C59.493 20.3543 59.5063 20.3109 59.5263 20.2709C59.413 20.1843 59.273 20.1176 59.1063 20.0709C58.9463 20.0176 58.7596 19.9909 58.5463 19.9909C58.2463 19.9909 57.9796 20.0576 57.7463 20.1909C57.513 20.3243 57.3296 20.5276 57.1963 20.8009C57.063 21.0743 56.9963 21.4209 56.9963 21.8409V22.2109H59.2863C59.4396 22.2109 59.5696 22.2076 59.6763 22.2009C59.7896 22.1876 59.8796 22.1743 59.9463 22.1609C60.013 22.1409 60.053 22.1243 60.0663 22.1109H60.3563V26.1509C60.3563 26.2843 60.353 26.4043 60.3463 26.5109C60.3463 26.6109 60.3363 26.7176 60.3163 26.8309C60.423 26.8243 60.5263 26.8209 60.6263 26.8209C60.733 26.8143 60.8396 26.8076 60.9463 26.8009V27.2109H58.9063V26.9109C59.113 26.9109 59.2563 26.8609 59.3363 26.7609C59.4163 26.6543 59.463 26.5109 59.4763 26.3309C59.4896 26.1443 59.4963 25.9309 59.4963 25.6909V23.2109C59.4963 23.1043 59.4996 23.0043 59.5063 22.9109C59.513 22.8109 59.523 22.6943 59.5363 22.5609L56.9963 22.6209L57.0063 26.1609C57.0063 26.2943 57.003 26.4109 56.9963 26.5109C56.9963 26.6109 56.9863 26.7176 56.9663 26.8309C57.073 26.8243 57.1763 26.8209 57.2763 26.8209C57.383 26.8143 57.4896 26.8076 57.5963 26.8009V27.2109H55.5663ZM64.1568 27.3709C63.6968 27.3709 63.2801 27.2643 62.9068 27.0509C62.5401 26.8309 62.2501 26.5243 62.0368 26.1309C61.8234 25.7309 61.7168 25.2609 61.7168 24.7209C61.7168 24.2543 61.8201 23.8176 62.0268 23.4109C62.2401 23.0043 62.5368 22.6776 62.9168 22.4309C63.2968 22.1776 63.7368 22.0509 64.2368 22.0509C64.5168 22.0509 64.7768 22.0976 65.0168 22.1909C65.2634 22.2776 65.4801 22.4143 65.6668 22.6009C65.8534 22.7809 66.0001 23.0109 66.1068 23.2909C66.2134 23.5643 66.2668 23.8876 66.2668 24.2609L62.7468 24.3209C62.7468 24.8276 62.8001 25.2743 62.9068 25.6609C63.0201 26.0409 63.2001 26.3376 63.4468 26.5509C63.6934 26.7576 64.0101 26.8609 64.3968 26.8609C64.6034 26.8609 64.8134 26.8243 65.0268 26.7509C65.2468 26.6776 65.4501 26.5776 65.6368 26.4509C65.8234 26.3243 65.9734 26.1843 66.0868 26.0309L66.3268 26.2309C66.1468 26.5109 65.9301 26.7343 65.6768 26.9009C65.4234 27.0676 65.1634 27.1876 64.8968 27.2609C64.6301 27.3343 64.3834 27.3709 64.1568 27.3709ZM62.7768 23.9009H65.3268C65.3268 23.6609 65.2901 23.4309 65.2168 23.2109C65.1501 22.9843 65.0368 22.8009 64.8768 22.6609C64.7168 22.5143 64.5068 22.4409 64.2468 22.4409C63.8601 22.4409 63.5368 22.5576 63.2768 22.7909C63.0234 23.0176 62.8568 23.3876 62.7768 23.9009ZM69.2478 27.3709C68.8412 27.3709 68.4745 27.2709 68.1478 27.0709C67.8212 26.8643 67.5612 26.5709 67.3678 26.1909C67.1812 25.8109 67.0878 25.3643 67.0878 24.8509C67.0878 24.3043 67.1978 23.8209 67.4178 23.4009C67.6378 22.9809 67.9412 22.6509 68.3278 22.4109C68.7212 22.1709 69.1645 22.0509 69.6578 22.0509C69.8778 22.0509 70.0945 22.0809 70.3078 22.1409C70.5278 22.1943 70.7012 22.2576 70.8278 22.3309V20.9609C70.8278 20.8543 70.8278 20.7543 70.8278 20.6609C70.8345 20.5609 70.8445 20.4443 70.8578 20.3109C70.7378 20.3176 70.6178 20.3243 70.4978 20.3309C70.3845 20.3376 70.2678 20.3443 70.1478 20.3509V19.9309C70.4412 19.9309 70.6678 19.9176 70.8278 19.8909C70.9878 19.8643 71.1078 19.8309 71.1878 19.7909C71.2745 19.7509 71.3412 19.7076 71.3878 19.6609H71.6778V26.1509C71.6778 26.2576 71.6745 26.3643 71.6678 26.4709C71.6612 26.5776 71.6512 26.6976 71.6378 26.8309C71.7578 26.8243 71.8745 26.8176 71.9878 26.8109C72.1078 26.8043 72.2278 26.7976 72.3478 26.7909V27.2109H70.9178C70.8978 27.1109 70.8812 27.0209 70.8678 26.9409C70.8612 26.8543 70.8545 26.7709 70.8478 26.6909C70.6612 26.8976 70.4312 27.0643 70.1578 27.1909C69.8845 27.3109 69.5812 27.3709 69.2478 27.3709ZM69.6078 26.8809C69.8278 26.8809 70.0478 26.8176 70.2678 26.6909C70.4945 26.5643 70.6812 26.4076 70.8278 26.2209C70.8212 26.1409 70.8178 26.0576 70.8178 25.9709C70.8178 25.8776 70.8178 25.7776 70.8178 25.6709L70.8278 22.7909C70.6678 22.6709 70.4912 22.5843 70.2978 22.5309C70.1112 22.4709 69.9178 22.4409 69.7178 22.4409C69.3845 22.4409 69.0945 22.5376 68.8478 22.7309C68.6012 22.9243 68.4145 23.1943 68.2878 23.5409C68.1612 23.8876 68.1045 24.2943 68.1178 24.7609C68.1312 25.1676 68.1945 25.5309 68.3078 25.8509C68.4278 26.1709 68.5945 26.4243 68.8078 26.6109C69.0278 26.7909 69.2945 26.8809 69.6078 26.8809Z" fill="#010101" fill-opacity="0.6"/>
<path d="M141.523 3.68893C141.563 3.68624 141.603 3.68425 141.643 3.683C142.448 3.66012 143.198 4.65784 143.72 5.19904L145.445 6.97802L150.812 12.5046L153.597 15.3759C154.077 15.8702 154.654 16.4285 155.078 16.9643C155.39 17.3572 155.557 18.0083 155.564 18.5104C155.576 19.4056 155.231 20.2686 154.605 20.9087C153.997 21.524 153.363 21.7495 152.51 21.7458C151.87 21.7431 151.225 21.7433 150.586 21.7429L145.696 21.7448L143.545 18.5087C143.167 17.9399 142.742 17.2626 142.347 16.7164C143.413 16.7089 144.479 16.7079 145.545 16.7134C146.464 16.713 147.465 16.695 148.378 16.7216C146.362 14.5693 144.364 12.3986 142.387 10.2097C142.182 9.99266 141.976 9.75945 141.775 9.53741C141.549 9.85825 141.239 10.2241 140.987 10.537L139.578 12.284C138.389 13.7571 137.206 15.2619 136.001 16.7187C136.337 16.6918 136.931 16.7106 137.283 16.7112L140.084 16.7107C140.544 16.7115 141.215 16.7373 141.646 16.7039C141.307 17.2231 140.953 17.8539 140.632 18.3915L138.638 21.7424C136.94 21.7654 135.184 21.7433 133.481 21.7431L131.848 21.7451C131.265 21.7473 130.833 21.8316 130.31 21.5319C128.767 20.6472 128.141 18.7322 129.095 17.178C129.37 16.7293 129.666 16.4198 130.012 16.0311L131.028 14.8924L134.323 11.1931L138.421 6.59515L139.618 5.24371C140.159 4.63251 140.703 3.89738 141.523 3.68893Z" fill="#DC8E2B"/>
<path d="M127.58 21.3681C127.646 21.3941 128.08 21.77 128.176 21.8462C129.147 22.635 130.124 23.417 131.107 24.1923C131.85 24.2156 132.731 24.1913 133.485 24.1913L138.295 24.1909L154.205 24.1943C154.886 23.5559 155.573 22.734 156.246 22.0739C156.49 21.8344 156.73 21.5455 156.986 21.3184C156.677 21.8185 156.373 22.4321 156.098 22.9575C155.484 24.1139 154.822 25.3607 154.244 26.5267L130.5 26.5289C130.348 26.2037 129.971 25.5913 129.782 25.2603L128.238 22.5598C128.056 22.239 127.725 21.6916 127.58 21.3681Z" fill="#DC8E2B"/>
<path d="M141.748 12.6822C142.677 12.6017 143.497 13.2856 143.585 14.2141C143.673 15.1426 142.995 15.968 142.068 16.063C141.13 16.1589 140.293 15.4723 140.204 14.5336C140.116 13.5948 140.809 12.7636 141.748 12.6822Z" fill="#DC8E2B"/>
<path d="M167.586 12.1055V11.3135C167.77 11.3055 167.922 11.2815 168.042 11.2415C168.17 11.2015 168.266 11.1095 168.33 10.9655C168.402 10.8215 168.438 10.5895 168.438 10.2695V5.67347C168.438 5.45747 168.442 5.24947 168.45 5.04947C168.466 4.84947 168.478 4.69747 168.486 4.59347C168.358 4.60147 168.198 4.60947 168.006 4.61747C167.814 4.61747 167.674 4.62147 167.586 4.62947V3.70547C168.138 3.69747 168.69 3.69347 169.242 3.69347C169.802 3.69347 170.358 3.68947 170.91 3.68147C171.87 3.67347 172.63 3.85347 173.19 4.22147C173.758 4.58147 174.022 5.12947 173.982 5.86547C173.966 6.09747 173.894 6.32547 173.766 6.54947C173.638 6.76547 173.446 6.96147 173.19 7.13747C172.942 7.31347 172.63 7.45347 172.254 7.55747V7.56947C173.054 7.69747 173.642 7.96547 174.018 8.37347C174.394 8.77347 174.582 9.22147 174.582 9.71747C174.582 10.2375 174.454 10.6775 174.198 11.0375C173.95 11.3895 173.606 11.6575 173.166 11.8415C172.726 12.0175 172.226 12.1055 171.666 12.1055H167.586ZM170.13 11.2535C170.274 11.2535 170.41 11.2535 170.538 11.2535C170.666 11.2535 170.794 11.2535 170.922 11.2535C171.05 11.2455 171.174 11.2415 171.294 11.2415C171.782 11.2175 172.138 11.0615 172.362 10.7735C172.586 10.4855 172.698 10.1215 172.698 9.68147C172.698 9.31347 172.622 9.02547 172.47 8.81747C172.318 8.60147 172.122 8.44947 171.882 8.36147C171.65 8.27347 171.406 8.22947 171.15 8.22947C170.95 8.22947 170.778 8.22947 170.634 8.22947C170.49 8.22947 170.338 8.23347 170.178 8.24147V10.1975C170.178 10.4135 170.174 10.6175 170.166 10.8095C170.158 11.0015 170.146 11.1495 170.13 11.2535ZM170.178 7.38947L170.802 7.37747C171.138 7.36947 171.402 7.29347 171.594 7.14947C171.794 7.00547 171.934 6.81347 172.014 6.57347C172.102 6.32547 172.146 6.05747 172.146 5.76947C172.146 5.44947 172.082 5.20147 171.954 5.02547C171.826 4.84147 171.666 4.70947 171.474 4.62947C171.282 4.54947 171.082 4.51347 170.874 4.52147C170.746 4.52147 170.63 4.54147 170.526 4.58147C170.422 4.62147 170.338 4.71347 170.274 4.85747C170.21 4.99347 170.178 5.21747 170.178 5.52947V7.38947ZM178.834 4.49747C178.658 4.50547 178.506 4.52947 178.378 4.56947C178.25 4.60947 178.15 4.70147 178.078 4.84547C178.014 4.98147 177.982 5.21347 177.982 5.54147V10.1375C177.982 10.3535 177.978 10.5615 177.97 10.7615C177.962 10.9615 177.95 11.1135 177.934 11.2175C178.062 11.2015 178.222 11.1935 178.414 11.1935C178.614 11.1855 178.754 11.1815 178.834 11.1815V12.1055H175.39V11.3135C175.574 11.3055 175.726 11.2815 175.846 11.2415C175.974 11.2015 176.07 11.1095 176.134 10.9655C176.206 10.8215 176.242 10.5895 176.242 10.2695V5.67347C176.242 5.45747 176.246 5.24947 176.254 5.04947C176.27 4.84947 176.282 4.69747 176.29 4.59347C176.162 4.60147 176.002 4.60947 175.81 4.61747C175.618 4.61747 175.478 4.62147 175.39 4.62947V3.70547H178.834V4.49747ZM184.879 6.39347C184.807 5.94547 184.679 5.57347 184.495 5.27747C184.311 4.97347 184.075 4.74547 183.787 4.59347C183.507 4.44147 183.179 4.36947 182.803 4.37747C182.459 4.37747 182.155 4.47347 181.891 4.66547C181.635 4.85747 181.507 5.10547 181.507 5.40947C181.507 5.65747 181.575 5.87347 181.711 6.05747C181.855 6.24147 182.071 6.41347 182.359 6.57347C182.647 6.73347 183.011 6.90547 183.451 7.08947C183.755 7.20947 184.067 7.34947 184.387 7.50947C184.707 7.66947 185.003 7.86147 185.275 8.08547C185.547 8.30147 185.767 8.55747 185.935 8.85347C186.103 9.14147 186.187 9.48147 186.187 9.87347C186.187 10.3455 186.059 10.7655 185.803 11.1335C185.547 11.5015 185.187 11.7895 184.723 11.9975C184.267 12.1975 183.731 12.2975 183.115 12.2975C182.795 12.2975 182.447 12.2455 182.071 12.1415C181.703 12.0455 181.355 11.9015 181.027 11.7095L181.063 12.2135H180.139V9.40547H180.931C181.043 10.0775 181.299 10.5855 181.699 10.9295C182.107 11.2655 182.591 11.4335 183.151 11.4335C183.439 11.4335 183.691 11.3815 183.907 11.2775C184.123 11.1735 184.291 11.0375 184.411 10.8695C184.531 10.6935 184.591 10.5055 184.591 10.3055C184.591 10.0255 184.491 9.79347 184.291 9.60947C184.099 9.42547 183.855 9.26947 183.559 9.14147C183.271 9.01347 182.975 8.88947 182.671 8.76947C182.287 8.60947 181.927 8.44147 181.591 8.26547C181.263 8.08147 180.975 7.87347 180.727 7.64147C180.479 7.40947 180.287 7.14547 180.151 6.84947C180.015 6.54547 179.947 6.19747 179.947 5.80547C179.947 5.55747 179.995 5.30147 180.091 5.03747C180.187 4.76547 180.343 4.51747 180.559 4.29347C180.775 4.06147 181.063 3.87347 181.423 3.72947C181.783 3.58547 182.227 3.51347 182.755 3.51347C183.075 3.51347 183.423 3.56147 183.799 3.65747C184.183 3.75347 184.511 3.89747 184.783 4.08947L184.735 3.59747H185.671V6.39347H184.879Z" fill="#010101" fill-opacity="0.6"/>
<path d="M167.446 27.1055C167.446 26.7521 167.499 26.4388 167.606 26.1655C167.719 25.8921 167.869 25.6421 168.056 25.4155C168.242 25.1821 168.452 24.9588 168.686 24.7455C168.926 24.5255 169.169 24.2955 169.416 24.0555C169.849 23.6421 170.162 23.2588 170.356 22.9055C170.549 22.5521 170.646 22.2121 170.646 21.8855C170.646 21.6321 170.609 21.3888 170.536 21.1555C170.469 20.9155 170.346 20.7188 170.166 20.5655C169.986 20.4121 169.736 20.3355 169.416 20.3355C169.142 20.3355 168.899 20.4055 168.686 20.5455C168.472 20.6788 168.329 20.8455 168.256 21.0455C168.322 21.1121 168.369 21.1855 168.396 21.2655C168.422 21.3388 168.436 21.4121 168.436 21.4855C168.436 21.5455 168.419 21.6121 168.386 21.6855C168.359 21.7588 168.309 21.8221 168.236 21.8755C168.162 21.9288 168.066 21.9555 167.946 21.9555C167.799 21.9488 167.686 21.8921 167.606 21.7855C167.526 21.6788 167.486 21.5521 167.486 21.4055C167.486 21.2655 167.529 21.1121 167.616 20.9455C167.702 20.7721 167.832 20.6121 168.006 20.4655C168.186 20.3121 168.406 20.1888 168.666 20.0955C168.926 19.9955 169.229 19.9455 169.576 19.9455C169.842 19.9455 170.099 19.9788 170.346 20.0455C170.599 20.1055 170.826 20.2055 171.026 20.3455C171.226 20.4855 171.382 20.6721 171.496 20.9055C171.616 21.1321 171.676 21.4155 171.676 21.7555C171.676 21.9221 171.639 22.1021 171.566 22.2955C171.499 22.4888 171.386 22.6988 171.226 22.9255C171.072 23.1455 170.872 23.3821 170.626 23.6355C170.379 23.8821 170.076 24.1521 169.716 24.4455C169.262 24.8188 168.889 25.1721 168.596 25.5055C168.309 25.8321 168.142 26.1121 168.096 26.3455L169.866 26.3955C170.192 26.4021 170.479 26.4021 170.726 26.3955C170.979 26.3888 171.176 26.3388 171.316 26.2455C171.462 26.1455 171.536 25.9655 171.536 25.7055H171.836L171.776 27.1055H167.446ZM176.202 26.0155C176.202 26.1488 176.199 26.2755 176.192 26.3955C176.192 26.5155 176.182 26.6255 176.162 26.7255C176.295 26.7188 176.425 26.7155 176.552 26.7155C176.679 26.7088 176.805 26.7021 176.932 26.6955V27.1055H174.422V26.7755H174.492C174.719 26.7555 174.889 26.6921 175.002 26.5855C175.115 26.4788 175.192 26.3355 175.232 26.1555C175.272 25.9755 175.292 25.7621 175.292 25.5155V25.1755H172.252V24.6855L175.872 19.9455H176.202V24.5755L177.212 24.5855V25.1755H176.202V26.0155ZM175.272 21.3655L172.912 24.5255L175.292 24.5555V21.3655H175.272ZM178.102 27.1055V26.7755C178.355 26.7621 178.529 26.7055 178.622 26.6055C178.715 26.4988 178.765 26.3555 178.772 26.1755C178.785 25.9888 178.792 25.7788 178.792 25.5455V21.2255C178.792 21.0921 178.795 20.9655 178.802 20.8455C178.809 20.7188 178.815 20.6055 178.822 20.5055C178.702 20.5121 178.582 20.5188 178.462 20.5255C178.342 20.5321 178.222 20.5388 178.102 20.5455V20.1055H180.352V20.4355C180.105 20.4421 179.932 20.4988 179.832 20.6055C179.739 20.7121 179.685 20.8555 179.672 21.0355C179.665 21.2155 179.662 21.4255 179.662 21.6655V23.3055H180.412L181.662 21.3355C181.749 21.2021 181.855 21.0555 181.982 20.8955C182.109 20.7355 182.239 20.6021 182.372 20.4955C182.272 20.5021 182.169 20.5055 182.062 20.5055C181.962 20.5055 181.862 20.5088 181.762 20.5155V20.1055H183.912V20.4355C183.632 20.4555 183.382 20.5021 183.162 20.5755C182.942 20.6488 182.732 20.7788 182.532 20.9655C182.332 21.1455 182.119 21.4188 181.892 21.7855L180.912 23.3455C181.105 23.4588 181.262 23.5921 181.382 23.7455C181.502 23.8921 181.622 24.0421 181.742 24.1955L182.862 25.6855C183.115 26.0188 183.322 26.2655 183.482 26.4255C183.649 26.5788 183.795 26.6755 183.922 26.7155C184.055 26.7555 184.192 26.7755 184.332 26.7755V27.1055H183.112C183.045 27.1055 182.955 27.0588 182.842 26.9655C182.735 26.8721 182.619 26.7521 182.492 26.6055C182.365 26.4521 182.235 26.2921 182.102 26.1255L180.902 24.5055C180.775 24.3388 180.649 24.1821 180.522 24.0355C180.395 23.8821 180.272 23.7688 180.152 23.6955L179.662 23.7055V25.9155C179.662 26.0955 179.659 26.2521 179.652 26.3855C179.652 26.5121 179.645 26.6188 179.632 26.7055C179.752 26.6988 179.872 26.6921 179.992 26.6855C180.112 26.6788 180.232 26.6721 180.352 26.6655V27.1055H178.102ZM187.555 27.1055V26.7755C187.808 26.7621 187.982 26.7055 188.075 26.6055C188.168 26.4988 188.218 26.3555 188.225 26.1755C188.238 25.9888 188.245 25.7788 188.245 25.5455V21.2255C188.245 21.0921 188.248 20.9655 188.255 20.8455C188.262 20.7188 188.268 20.6055 188.275 20.5055C188.155 20.5121 188.035 20.5188 187.915 20.5255C187.795 20.5321 187.675 20.5388 187.555 20.5455V20.1055H189.805V20.4355C189.558 20.4421 189.385 20.4988 189.285 20.6055C189.192 20.7121 189.138 20.8555 189.125 21.0355C189.118 21.2155 189.115 21.4255 189.115 21.6655V23.3255H192.695V21.2255C192.695 21.0921 192.698 20.9655 192.705 20.8455C192.712 20.7188 192.718 20.6055 192.725 20.5055C192.605 20.5121 192.485 20.5188 192.365 20.5255C192.245 20.5321 192.125 20.5388 192.005 20.5455V20.1055H194.255V20.4355C194.008 20.4421 193.835 20.4988 193.735 20.6055C193.642 20.7121 193.588 20.8555 193.575 21.0355C193.568 21.2155 193.565 21.4255 193.565 21.6655V25.9155C193.565 26.0955 193.562 26.2521 193.555 26.3855C193.555 26.5121 193.548 26.6188 193.535 26.7055C193.655 26.6988 193.775 26.6921 193.895 26.6855C194.015 26.6788 194.135 26.6721 194.255 26.6655V27.1055H192.005V26.7755C192.258 26.7621 192.432 26.7055 192.525 26.6055C192.618 26.4988 192.668 26.3555 192.675 26.1755C192.688 25.9888 192.695 25.7788 192.695 25.5455V23.7255L189.115 23.7655V25.9155C189.115 26.0955 189.112 26.2521 189.105 26.3855C189.105 26.5121 189.098 26.6188 189.085 26.7055C189.205 26.6988 189.325 26.6921 189.445 26.6855C189.565 26.6788 189.685 26.6721 189.805 26.6655V27.1055H187.555ZM198.21 27.1055C198.19 26.9921 198.176 26.8921 198.17 26.8055C198.163 26.7188 198.153 26.6288 198.14 26.5355C197.913 26.7621 197.666 26.9421 197.4 27.0755C197.14 27.2021 196.863 27.2655 196.57 27.2655C196.063 27.2655 195.686 27.1521 195.44 26.9255C195.193 26.6921 195.07 26.4088 195.07 26.0755C195.07 25.7688 195.163 25.5055 195.35 25.2855C195.543 25.0588 195.79 24.8755 196.09 24.7355C196.396 24.5888 196.726 24.4821 197.08 24.4155C197.44 24.3421 197.786 24.3088 198.12 24.3155V23.6955C198.12 23.4621 198.1 23.2421 198.06 23.0355C198.02 22.8288 197.933 22.6588 197.8 22.5255C197.666 22.3921 197.453 22.3221 197.16 22.3155C196.966 22.3088 196.766 22.3455 196.56 22.4255C196.36 22.5055 196.213 22.6421 196.12 22.8355C196.173 22.8888 196.206 22.9521 196.22 23.0255C196.24 23.0921 196.25 23.1555 196.25 23.2155C196.25 23.2955 196.216 23.3888 196.15 23.4955C196.083 23.5955 195.966 23.6421 195.8 23.6355C195.66 23.6355 195.553 23.5888 195.48 23.4955C195.406 23.3955 195.37 23.2788 195.37 23.1455C195.37 22.9188 195.453 22.7155 195.62 22.5355C195.793 22.3555 196.03 22.2121 196.33 22.1055C196.63 21.9988 196.97 21.9455 197.35 21.9455C197.91 21.9455 198.323 22.0955 198.59 22.3955C198.856 22.6888 198.986 23.1555 198.98 23.7955C198.98 24.0421 198.98 24.2921 198.98 24.5455C198.98 24.7921 198.976 25.0421 198.97 25.2955C198.97 25.5421 198.97 25.7921 198.97 26.0455C198.97 26.1521 198.966 26.2588 198.96 26.3655C198.953 26.4721 198.943 26.5921 198.93 26.7255C199.05 26.7188 199.166 26.7121 199.28 26.7055C199.4 26.6988 199.52 26.6921 199.64 26.6855V27.1055H198.21ZM198.12 24.6555C197.893 24.6621 197.653 24.6921 197.4 24.7455C197.153 24.7921 196.923 24.8655 196.71 24.9655C196.503 25.0655 196.333 25.1988 196.2 25.3655C196.073 25.5255 196.013 25.7221 196.02 25.9555C196.033 26.2021 196.113 26.3888 196.26 26.5155C196.413 26.6355 196.593 26.6955 196.8 26.6955C197.073 26.6955 197.31 26.6455 197.51 26.5455C197.716 26.4388 197.92 26.2921 198.12 26.1055C198.113 26.0321 198.11 25.9521 198.11 25.8655C198.11 25.7788 198.11 25.6888 198.11 25.5955C198.11 25.5621 198.11 25.4555 198.11 25.2755C198.116 25.0955 198.12 24.8888 198.12 24.6555ZM200.226 26.8055C200.433 26.8055 200.576 26.7555 200.656 26.6555C200.736 26.5488 200.783 26.4055 200.796 26.2255C200.809 26.0388 200.816 25.8255 200.816 25.5855V20.8555C200.816 20.7488 200.816 20.6488 200.816 20.5555C200.823 20.4555 200.833 20.3388 200.846 20.2055C200.726 20.2121 200.606 20.2188 200.486 20.2255C200.373 20.2321 200.256 20.2388 200.136 20.2455V19.8255C200.429 19.8255 200.656 19.8121 200.816 19.7855C200.983 19.7588 201.106 19.7255 201.186 19.6855C201.273 19.6455 201.339 19.6021 201.386 19.5555H201.676L201.686 26.0455C201.686 26.1788 201.683 26.2988 201.676 26.4055C201.669 26.5055 201.656 26.6121 201.636 26.7255C201.743 26.7188 201.846 26.7155 201.946 26.7155C202.053 26.7088 202.159 26.7021 202.266 26.6955V27.1055H200.226V26.8055ZM202.951 26.8055C203.157 26.8055 203.301 26.7555 203.381 26.6555C203.461 26.5488 203.507 26.4055 203.521 26.2255C203.534 26.0388 203.541 25.8255 203.541 25.5855V20.8555C203.541 20.7488 203.541 20.6488 203.541 20.5555C203.547 20.4555 203.557 20.3388 203.571 20.2055C203.451 20.2121 203.331 20.2188 203.211 20.2255C203.097 20.2321 202.981 20.2388 202.861 20.2455V19.8255C203.154 19.8255 203.381 19.8121 203.541 19.7855C203.707 19.7588 203.831 19.7255 203.911 19.6855C203.997 19.6455 204.064 19.6021 204.111 19.5555H204.401L204.411 26.0455C204.411 26.1788 204.407 26.2988 204.401 26.4055C204.394 26.5055 204.381 26.6121 204.361 26.7255C204.467 26.7188 204.571 26.7155 204.671 26.7155C204.777 26.7088 204.884 26.7021 204.991 26.6955V27.1055H202.951V26.8055ZM205.775 27.1055V26.8055C205.982 26.8055 206.125 26.7555 206.205 26.6555C206.285 26.5488 206.332 26.4055 206.345 26.2255C206.359 26.0388 206.365 25.8255 206.365 25.5855V23.3055C206.365 23.1988 206.365 23.0921 206.365 22.9855C206.372 22.8788 206.385 22.7688 206.405 22.6555C206.285 22.6621 206.165 22.6688 206.045 22.6755C205.932 22.6821 205.815 22.6888 205.695 22.6955V22.2755C205.989 22.2755 206.209 22.2621 206.355 22.2355C206.509 22.2088 206.622 22.1755 206.695 22.1355C206.769 22.0955 206.829 22.0521 206.875 22.0055H207.165C207.179 22.0721 207.185 22.1488 207.185 22.2355C207.192 22.3221 207.199 22.4221 207.205 22.5355C207.405 22.3621 207.635 22.2221 207.895 22.1155C208.155 22.0021 208.415 21.9455 208.675 21.9455C209.009 21.9455 209.289 22.0055 209.515 22.1255C209.742 22.2455 209.919 22.4088 210.045 22.6155C210.272 22.4288 210.532 22.2721 210.825 22.1455C211.125 22.0121 211.419 21.9455 211.705 21.9455C212.285 21.9455 212.712 22.1221 212.985 22.4755C213.259 22.8221 213.389 23.3921 213.375 24.1855L213.365 26.0455C213.365 26.1788 213.362 26.2988 213.355 26.4055C213.355 26.5055 213.345 26.6121 213.325 26.7255C213.432 26.7188 213.535 26.7155 213.635 26.7155C213.742 26.7088 213.849 26.7021 213.955 26.6955V27.1055H211.915V26.8055C212.122 26.8055 212.265 26.7555 212.345 26.6555C212.425 26.5488 212.472 26.4055 212.485 26.2255C212.499 26.0388 212.505 25.8255 212.505 25.5855V24.1855C212.505 23.6121 212.412 23.1821 212.225 22.8955C212.045 22.6088 211.759 22.4688 211.365 22.4755C211.159 22.4755 210.952 22.5221 210.745 22.6155C210.539 22.7088 210.359 22.8255 210.205 22.9655C210.239 23.0721 210.262 23.1888 210.275 23.3155C210.295 23.4355 210.305 23.5621 210.305 23.6955C210.299 24.0821 210.295 24.4721 210.295 24.8655C210.295 25.2588 210.292 25.6521 210.285 26.0455C210.285 26.1788 210.282 26.2988 210.275 26.4055C210.275 26.5055 210.265 26.6121 210.245 26.7255C210.352 26.7188 210.455 26.7155 210.555 26.7155C210.662 26.7088 210.769 26.7021 210.875 26.6955V27.1055H208.835V26.8055C209.042 26.8055 209.182 26.7555 209.255 26.6555C209.335 26.5488 209.382 26.4055 209.395 26.2255C209.415 26.0388 209.425 25.8255 209.425 25.5855L209.435 24.1855C209.442 23.6121 209.359 23.1788 209.185 22.8855C209.012 22.5921 208.729 22.4488 208.335 22.4555C208.129 22.4555 207.925 22.5021 207.725 22.5955C207.525 22.6821 207.355 22.7955 207.215 22.9355C207.215 23.0155 207.215 23.1021 207.215 23.1955C207.222 23.2821 207.225 23.3755 207.225 23.4755V26.0455C207.225 26.1788 207.222 26.2988 207.215 26.4055C207.215 26.5055 207.205 26.6121 207.185 26.7255C207.292 26.7188 207.395 26.7155 207.495 26.7155C207.602 26.7088 207.709 26.7021 207.815 26.6955V27.1055H205.775ZM217.751 27.1055C217.731 26.9921 217.717 26.8921 217.711 26.8055C217.704 26.7188 217.694 26.6288 217.681 26.5355C217.454 26.7621 217.207 26.9421 216.941 27.0755C216.681 27.2021 216.404 27.2655 216.111 27.2655C215.604 27.2655 215.227 27.1521 214.981 26.9255C214.734 26.6921 214.611 26.4088 214.611 26.0755C214.611 25.7688 214.704 25.5055 214.891 25.2855C215.084 25.0588 215.331 24.8755 215.631 24.7355C215.937 24.5888 216.267 24.4821 216.621 24.4155C216.981 24.3421 217.327 24.3088 217.661 24.3155V23.6955C217.661 23.4621 217.641 23.2421 217.601 23.0355C217.561 22.8288 217.474 22.6588 217.341 22.5255C217.207 22.3921 216.994 22.3221 216.701 22.3155C216.507 22.3088 216.307 22.3455 216.101 22.4255C215.901 22.5055 215.754 22.6421 215.661 22.8355C215.714 22.8888 215.747 22.9521 215.761 23.0255C215.781 23.0921 215.791 23.1555 215.791 23.2155C215.791 23.2955 215.757 23.3888 215.691 23.4955C215.624 23.5955 215.507 23.6421 215.341 23.6355C215.201 23.6355 215.094 23.5888 215.021 23.4955C214.947 23.3955 214.911 23.2788 214.911 23.1455C214.911 22.9188 214.994 22.7155 215.161 22.5355C215.334 22.3555 215.571 22.2121 215.871 22.1055C216.171 21.9988 216.511 21.9455 216.891 21.9455C217.451 21.9455 217.864 22.0955 218.131 22.3955C218.397 22.6888 218.527 23.1555 218.521 23.7955C218.521 24.0421 218.521 24.2921 218.521 24.5455C218.521 24.7921 218.517 25.0421 218.511 25.2955C218.511 25.5421 218.511 25.7921 218.511 26.0455C218.511 26.1521 218.507 26.2588 218.501 26.3655C218.494 26.4721 218.484 26.5921 218.471 26.7255C218.591 26.7188 218.707 26.7121 218.821 26.7055C218.941 26.6988 219.061 26.6921 219.181 26.6855V27.1055H217.751ZM217.661 24.6555C217.434 24.6621 217.194 24.6921 216.941 24.7455C216.694 24.7921 216.464 24.8655 216.251 24.9655C216.044 25.0655 215.874 25.1988 215.741 25.3655C215.614 25.5255 215.554 25.7221 215.561 25.9555C215.574 26.2021 215.654 26.3888 215.801 26.5155C215.954 26.6355 216.134 26.6955 216.341 26.6955C216.614 26.6955 216.851 26.6455 217.051 26.5455C217.257 26.4388 217.461 26.2921 217.661 26.1055C217.654 26.0321 217.651 25.9521 217.651 25.8655C217.651 25.7788 217.651 25.6888 217.651 25.5955C217.651 25.5621 217.651 25.4555 217.651 25.2755C217.657 25.0955 217.661 24.8888 217.661 24.6555ZM219.867 26.8055C220.074 26.8055 220.217 26.7555 220.297 26.6555C220.377 26.5488 220.424 26.4055 220.437 26.2255C220.45 26.0388 220.457 25.8255 220.457 25.5855V23.3055C220.457 23.1988 220.457 23.0921 220.457 22.9855C220.464 22.8788 220.477 22.7688 220.497 22.6555C220.377 22.6621 220.257 22.6688 220.137 22.6755C220.024 22.6755 219.907 22.6788 219.787 22.6855V22.2755H220.097C220.384 22.2755 220.58 22.2488 220.687 22.1955C220.8 22.1355 220.894 22.0721 220.967 22.0055H221.257C221.27 22.1121 221.28 22.2455 221.287 22.4055C221.294 22.5588 221.3 22.7555 221.307 22.9955C221.407 22.8288 221.544 22.6655 221.717 22.5055C221.89 22.3455 222.084 22.2121 222.297 22.1055C222.517 21.9988 222.747 21.9455 222.987 21.9455C223.174 21.9455 223.337 21.9955 223.477 22.0955C223.617 22.1955 223.687 22.3555 223.687 22.5755C223.687 22.6288 223.67 22.6955 223.637 22.7755C223.604 22.8488 223.55 22.9155 223.477 22.9755C223.404 23.0288 223.307 23.0555 223.187 23.0555C223.04 23.0488 222.924 22.9921 222.837 22.8855C222.75 22.7721 222.717 22.6421 222.737 22.4955C222.57 22.4888 222.397 22.5321 222.217 22.6255C222.044 22.7188 221.88 22.8488 221.727 23.0155C221.574 23.1755 221.437 23.3655 221.317 23.5855L221.327 26.0455C221.327 26.1788 221.324 26.2988 221.317 26.4055C221.317 26.5055 221.307 26.6121 221.287 26.7255C221.394 26.7188 221.497 26.7155 221.597 26.7155C221.704 26.7088 221.81 26.7021 221.917 26.6955V27.1055H219.867V26.8055ZM224.064 27.1055V26.8055C224.271 26.8055 224.411 26.7555 224.484 26.6555C224.564 26.5488 224.611 26.4055 224.624 26.2255C224.637 26.0388 224.644 25.8255 224.644 25.5855L224.654 20.8555C224.654 20.7488 224.654 20.6488 224.654 20.5555C224.661 20.4555 224.671 20.3388 224.684 20.2055C224.564 20.2121 224.444 20.2188 224.324 20.2255C224.211 20.2321 224.094 20.2388 223.974 20.2455V19.8255C224.267 19.8255 224.494 19.8121 224.654 19.7855C224.814 19.7588 224.934 19.7255 225.014 19.6855C225.101 19.6455 225.167 19.6021 225.214 19.5555H225.504V24.2855H225.904L227.124 23.0055C227.237 22.8921 227.341 22.7921 227.434 22.7055C227.527 22.6121 227.621 22.5355 227.714 22.4755L227.034 22.5055V22.1055H228.854V22.4055C228.627 22.4255 228.414 22.4988 228.214 22.6255C228.021 22.7455 227.841 22.8821 227.674 23.0355C227.514 23.1888 227.374 23.3288 227.254 23.4555L226.474 24.2755C226.607 24.3355 226.721 24.4121 226.814 24.5055C226.907 24.5988 227.001 24.7021 227.094 24.8155L227.804 25.7255C227.837 25.7655 227.894 25.8421 227.974 25.9555C228.061 26.0688 228.161 26.1921 228.274 26.3255C228.394 26.4588 228.517 26.5721 228.644 26.6655C228.777 26.7588 228.901 26.8055 229.014 26.8055V27.1055H228.104C227.917 27.1055 227.741 27.0088 227.574 26.8155C227.407 26.6221 227.231 26.4055 227.044 26.1655C226.871 25.9255 226.714 25.7088 226.574 25.5155C226.441 25.3155 226.317 25.1421 226.204 24.9955C226.097 24.8488 226.001 24.7355 225.914 24.6555L225.504 24.6755V26.0455C225.504 26.1788 225.501 26.2988 225.494 26.4055C225.494 26.5055 225.484 26.6121 225.464 26.7255C225.571 26.7188 225.677 26.7155 225.784 26.7155C225.891 26.7088 225.997 26.7021 226.104 26.6955V27.1055H224.064Z" fill="#010101" fill-opacity="0.6"/>
</svg>
