<svg width="40" height="40" viewBox="0 0 40 40" fill="none" xmlns="http://www.w3.org/2000/svg">
<path d="M38.7906 10.1453C37.7414 6.27969 33.7211 2.25938 29.8555 1.21016C27.4859 0.61875 24.3102 0.0101562 20 0C15.6906 0.0109375 12.5148 0.61875 10.1453 1.21016C6.27969 2.26016 2.25938 6.27969 1.21016 10.1453C0.61875 12.5148 0.0109375 15.6906 0 20C0.0109375 24.3102 0.61875 27.4859 1.21016 29.8555C2.25938 33.7211 6.27969 37.7406 10.1453 38.7906C12.5148 39.382 15.6922 39.9898 20 40.0008C24.3102 39.9898 27.4859 39.382 29.8555 38.7906C33.7211 37.7406 37.7414 33.7211 38.7906 29.8555C39.382 27.4859 39.9898 24.3086 40.0008 20C39.9898 15.6906 39.382 12.5148 38.7906 10.1453Z" fill="#B3F0B4" fill-opacity="0.3"/>
<path d="M29.1663 26.4167V29.1667H10.833V26.4167C10.833 25.9125 11.2455 25.5 11.7497 25.5H28.2497C28.7538 25.5 29.1663 25.9125 29.1663 26.4167Z" fill="url(#paint0_linear_56_3165)" stroke="url(#paint1_linear_56_3165)" stroke-width="1.5" stroke-miterlimit="10" stroke-linecap="round" stroke-linejoin="round"/>
<path d="M15.4163 19.0835H13.583V25.5002H15.4163V19.0835Z" fill="url(#paint2_linear_56_3165)"/>
<path d="M19.0833 19.0835H17.25V25.5002H19.0833V19.0835Z" fill="url(#paint3_linear_56_3165)"/>
<path d="M22.7503 19.0835H20.917V25.5002H22.7503V19.0835Z" fill="url(#paint4_linear_56_3165)"/>
<path d="M26.4163 19.0835H24.583V25.5002H26.4163V19.0835Z" fill="url(#paint5_linear_56_3165)"/>
<path d="M30.0837 29.854H9.91699C9.54116 29.854 9.22949 29.5423 9.22949 29.1665C9.22949 28.7907 9.54116 28.479 9.91699 28.479H30.0837C30.4595 28.479 30.7712 28.7907 30.7712 29.1665C30.7712 29.5423 30.4595 29.854 30.0837 29.854Z" fill="url(#paint6_linear_56_3165)"/>
<path d="M28.5888 14.271L20.3388 10.971C20.1555 10.8977 19.8438 10.8977 19.6605 10.971L11.4105 14.271C11.0897 14.3993 10.833 14.7752 10.833 15.1235V18.1668C10.833 18.671 11.2455 19.0835 11.7497 19.0835H28.2497C28.7538 19.0835 29.1663 18.671 29.1663 18.1668V15.1235C29.1663 14.7752 28.9097 14.3993 28.5888 14.271ZM19.9997 16.7918C19.2388 16.7918 18.6247 16.1777 18.6247 15.4168C18.6247 14.656 19.2388 14.0418 19.9997 14.0418C20.7605 14.0418 21.3747 14.656 21.3747 15.4168C21.3747 16.1777 20.7605 16.7918 19.9997 16.7918Z" fill="url(#paint7_linear_56_3165)"/>
<defs>
<linearGradient id="paint0_linear_56_3165" x1="27.2033" y1="28.2901" x2="26.3884" y2="23.5214" gradientUnits="userSpaceOnUse">
<stop stop-color="#0D7E00"/>
<stop offset="0.52" stop-color="#0F8F01"/>
<stop offset="1" stop-color="#97F364"/>
</linearGradient>
<linearGradient id="paint1_linear_56_3165" x1="27.2033" y1="28.2901" x2="26.3884" y2="23.5214" gradientUnits="userSpaceOnUse">
<stop stop-color="#0D7E00"/>
<stop offset="0.52" stop-color="#0F8F01"/>
<stop offset="1" stop-color="#97F364"/>
</linearGradient>
<linearGradient id="paint2_linear_56_3165" x1="15.22" y1="23.9662" x2="12.6368" y2="23.1024" gradientUnits="userSpaceOnUse">
<stop stop-color="#0D7E00"/>
<stop offset="0.52" stop-color="#0F8F01"/>
<stop offset="1" stop-color="#97F364"/>
</linearGradient>
<linearGradient id="paint3_linear_56_3165" x1="18.887" y1="23.9662" x2="16.3038" y2="23.1024" gradientUnits="userSpaceOnUse">
<stop stop-color="#0D7E00"/>
<stop offset="0.52" stop-color="#0F8F01"/>
<stop offset="1" stop-color="#97F364"/>
</linearGradient>
<linearGradient id="paint4_linear_56_3165" x1="22.554" y1="23.9662" x2="19.9708" y2="23.1024" gradientUnits="userSpaceOnUse">
<stop stop-color="#0D7E00"/>
<stop offset="0.52" stop-color="#0F8F01"/>
<stop offset="1" stop-color="#97F364"/>
</linearGradient>
<linearGradient id="paint5_linear_56_3165" x1="26.22" y1="23.9662" x2="23.6368" y2="23.1024" gradientUnits="userSpaceOnUse">
<stop stop-color="#0D7E00"/>
<stop offset="0.52" stop-color="#0F8F01"/>
<stop offset="1" stop-color="#97F364"/>
</linearGradient>
<linearGradient id="paint6_linear_56_3165" x1="28.4645" y1="29.5253" x2="28.3645" y2="27.6903" gradientUnits="userSpaceOnUse">
<stop stop-color="#0D7E00"/>
<stop offset="0.52" stop-color="#0F8F01"/>
<stop offset="1" stop-color="#97F364"/>
</linearGradient>
<linearGradient id="paint7_linear_56_3165" x1="27.2033" y1="17.131" x2="23.5686" y2="7.58213" gradientUnits="userSpaceOnUse">
<stop stop-color="#0D7E00"/>
<stop offset="0.52" stop-color="#0F8F01"/>
<stop offset="1" stop-color="#97F364"/>
</linearGradient>
</defs>
</svg>
