<svg width="44" height="45" viewBox="0 0 44 45" fill="none" xmlns="http://www.w3.org/2000/svg">
<rect width="44" height="44.8462" rx="8" fill="#0E5723"/>
<path fill-rule="evenodd" clip-rule="evenodd" d="M28.1077 12.8392C28.1092 12.8453 28.1092 12.8514 28.1092 12.8576C28.1384 13.0061 28.2705 13.1179 28.4271 13.1164H28.4394H28.4532C29.2886 13.1164 30.0441 13.4548 30.5923 13.9999C31.1389 14.5451 31.4768 15.2985 31.4768 16.13C31.4768 16.2142 31.4783 16.1192 31.4783 16.1575L31.4768 16.1928C31.4752 16.3689 31.615 16.5143 31.7916 16.5159C31.8054 16.5159 31.8192 16.5143 31.833 16.5128C31.8469 16.5143 31.8607 16.5159 31.8745 16.5159C32.0511 16.5143 32.1924 16.3689 32.1893 16.1928V16.1575V16.1545V16.13C32.1893 15.2969 32.5287 14.5451 33.0753 13.9999C33.622 13.4548 34.3775 13.1164 35.2113 13.1164H35.2251H35.2374C35.3941 13.1179 35.5261 13.0061 35.5553 12.8576C35.5568 12.8514 35.5568 12.8453 35.5568 12.8392C35.5584 12.8269 35.5614 12.8132 35.5614 12.8009V12.7963V12.7917C35.5614 12.7779 35.5584 12.7657 35.5568 12.7534C35.5553 12.7473 35.5553 12.7412 35.5553 12.7351C35.5507 12.7152 35.5461 12.6952 35.5384 12.6769C35.5154 12.6217 35.477 12.5743 35.4294 12.5391C35.4263 12.5375 35.4248 12.536 35.4232 12.5329C35.4109 12.5253 35.3987 12.5176 35.3848 12.5115C35.3787 12.5084 35.3741 12.5054 35.3679 12.5023C35.3572 12.4977 35.3464 12.4946 35.3342 12.4916C35.325 12.4885 35.3157 12.4855 35.3065 12.4839C35.2958 12.4824 35.285 12.4809 35.2743 12.4809C35.2651 12.4793 35.2558 12.4778 35.2451 12.4778H35.2344H35.2236C35.2359 12.4778 35.2589 12.4763 35.2098 12.4763C34.3744 12.4763 33.6204 12.1394 33.0738 11.5942C32.5271 11.0491 32.1878 10.2942 32.1878 9.46266V9.43969V9.43662V9.40141C32.1893 9.2253 32.0496 9.07983 31.873 9.07524C31.8591 9.07524 31.8453 9.07677 31.8315 9.0783C31.8177 9.07677 31.8039 9.07524 31.79 9.07524C31.6134 9.0783 31.4722 9.22378 31.4752 9.40141L31.4768 9.43356C31.4768 9.47338 31.4752 9.37844 31.4752 9.46113C31.4752 10.2942 31.1374 11.0476 30.5907 11.5927C30.0441 12.1378 29.287 12.4747 28.4517 12.4747C28.4041 12.4747 28.4271 12.4763 28.4394 12.4763H28.4271H28.424L28.421 12.4778C28.4118 12.4778 28.401 12.4793 28.3918 12.4809C28.381 12.4824 28.3703 12.4824 28.3595 12.4839C28.3503 12.4855 28.3411 12.4901 28.3319 12.4916C28.3212 12.4946 28.3089 12.4977 28.2997 12.5023C28.2935 12.5054 28.2874 12.5084 28.2812 12.5115C28.2689 12.5176 28.2551 12.5237 28.2428 12.5329C28.2398 12.5345 28.2382 12.536 28.2352 12.5391C28.1876 12.5743 28.1492 12.6202 28.1261 12.6769C28.1185 12.6952 28.1123 12.7152 28.1092 12.7351C28.1077 12.7412 28.1077 12.7473 28.1077 12.7534C28.1062 12.7657 28.1031 12.7779 28.1031 12.7917V12.7963V12.8009C28.1046 12.8147 28.1062 12.8269 28.1077 12.8392ZM11.4129 19.8357H11.4221H11.4329H11.4344C11.5035 19.8357 11.5665 19.8142 11.6187 19.7775C11.6202 19.7775 11.6202 19.7759 11.6218 19.7759C11.6371 19.7652 11.6509 19.753 11.6632 19.7407C11.6709 19.7331 11.6771 19.7239 11.6847 19.7147C11.6893 19.7086 11.6955 19.7024 11.7001 19.6948C11.7093 19.681 11.717 19.6657 11.7247 19.6504C11.7262 19.6473 11.7277 19.6443 11.7293 19.6412C11.7369 19.6243 11.7415 19.6075 11.7462 19.5907C11.7477 19.5876 11.7477 19.5845 11.7492 19.5815C11.7523 19.5677 11.7523 19.5524 11.7538 19.5386C11.7538 19.5325 11.7554 19.5248 11.7554 19.5187V19.5156V19.5126C11.7554 19.5064 11.7538 19.4988 11.7538 19.4926C11.7523 19.4773 11.7523 19.4636 11.7492 19.4498C11.7492 19.4467 11.7477 19.4452 11.7462 19.4421C11.7415 19.4237 11.7369 19.4069 11.7293 19.3901C11.7293 19.3901 11.7293 19.3885 11.7277 19.3885C11.72 19.3701 11.7093 19.3533 11.6986 19.3365L11.697 19.3349C11.6863 19.3196 11.674 19.3043 11.6602 19.2905C11.6586 19.289 11.6556 19.2875 11.654 19.2859C11.6417 19.2737 11.6279 19.263 11.6126 19.2522C11.608 19.2492 11.6033 19.2476 11.6003 19.2446C11.5865 19.2369 11.5742 19.2293 11.5588 19.2231C11.5527 19.2201 11.545 19.2185 11.5389 19.217C11.5266 19.2124 11.5143 19.2078 11.5005 19.2048C11.4912 19.2032 11.4805 19.2032 11.4713 19.2017C11.4605 19.2002 11.4513 19.1986 11.4406 19.1986H11.4314H11.4175C11.4268 19.1986 11.4636 19.1971 11.4129 19.1971C10.8094 19.1971 10.2628 18.9536 9.8666 18.5586C9.47042 18.1635 9.22473 17.6183 9.22473 17.0165V17.0089V16.9982V16.9874V16.9721C9.2278 16.796 9.08653 16.6505 8.90993 16.646C8.89918 16.646 8.88843 16.6475 8.87769 16.649C8.86694 16.6475 8.85619 16.646 8.84544 16.646C8.66884 16.649 8.52757 16.7945 8.53064 16.9721L8.53218 16.9951C8.53218 17.041 8.53064 16.9384 8.53064 17.015C8.53064 17.6168 8.28649 18.162 7.89031 18.557C7.49413 18.9521 6.94747 19.1956 6.34397 19.1956C6.29022 19.1956 6.33015 19.1971 6.33783 19.1971H6.32401H6.31633C6.30558 19.1971 6.29637 19.2002 6.28562 19.2002C6.27641 19.2017 6.26566 19.2017 6.25644 19.2032C6.24416 19.2063 6.23187 19.2094 6.22112 19.214C6.21345 19.217 6.20423 19.2185 6.19655 19.2216C6.18581 19.2262 6.17506 19.2323 6.16431 19.2385C6.15663 19.243 6.14895 19.2461 6.14127 19.2507C6.13206 19.2568 6.12438 19.2645 6.11517 19.2706C6.10749 19.2767 6.09981 19.2829 6.09367 19.289C6.08753 19.2951 6.08139 19.3028 6.07524 19.3104C6.06757 19.3196 6.05989 19.3273 6.05375 19.3365C6.04914 19.3426 6.04607 19.3502 6.04146 19.3579C6.03532 19.3686 6.02918 19.3793 6.02457 19.3901C6.0215 19.3977 6.01996 19.4054 6.01689 19.4146C6.01228 19.4268 6.00921 19.4375 6.00614 19.4498C6.00461 19.459 6.00461 19.4697 6.00307 19.4789C6.00154 19.4896 6 19.4988 6 19.5095V19.5126V19.5156C6 19.5263 6.00307 19.5355 6.00307 19.5462C6.00461 19.5554 6.00461 19.5662 6.00614 19.5753C6.00921 19.5891 6.01382 19.6014 6.01843 19.6136C6.0215 19.6197 6.0215 19.6274 6.02457 19.6335C6.03071 19.6488 6.03839 19.6626 6.0476 19.6764C6.04914 19.6795 6.05067 19.6841 6.05375 19.6871C6.06449 19.704 6.07678 19.7193 6.09214 19.7331C6.15049 19.7928 6.23341 19.8311 6.32401 19.8295H6.32554H6.33629H6.3455C6.94901 19.8295 7.49566 20.073 7.89184 20.4681C8.28802 20.8647 8.53218 21.4083 8.53218 22.0116C8.53218 22.0867 8.53371 21.9856 8.53371 22.03L8.53218 22.0561C8.53064 22.2322 8.67038 22.3776 8.84697 22.3807C8.85772 22.3807 8.86847 22.3792 8.87922 22.3776C8.88997 22.3792 8.90072 22.3807 8.91147 22.3807C9.08806 22.3776 9.23087 22.2322 9.22626 22.0561V22.0361V22.0239V22.0178C9.22626 21.4144 9.47195 20.8708 9.86813 20.4742C10.2628 20.0807 10.8094 19.8357 11.4129 19.8357ZM17.7427 11.8865C17.7442 11.9018 17.7442 11.9156 17.7473 11.9294C17.7473 11.9325 17.7488 11.934 17.7503 11.9371C17.755 11.9554 17.7596 11.9723 17.7672 11.9891C17.7672 11.9891 17.7672 11.9906 17.7688 11.9906C17.7764 12.009 17.7872 12.0259 17.7979 12.0427L17.7995 12.0442C17.8102 12.0596 17.8225 12.0749 17.8363 12.0886C17.8379 12.0902 17.8409 12.0917 17.8425 12.0932C17.8548 12.1055 17.8686 12.1162 17.8839 12.1269C17.8885 12.13 17.8932 12.1315 17.8962 12.1346C17.91 12.1422 17.9223 12.1499 17.9377 12.156C17.9438 12.1591 17.9515 12.1606 17.9592 12.1621C17.9715 12.1667 17.9838 12.1713 17.9976 12.1744C18.0068 12.1759 18.0175 12.1759 18.0267 12.1775C18.0375 12.179 18.0467 12.1805 18.0575 12.1805H18.0651C18.0452 12.1805 18.0191 12.1821 18.0851 12.1821C18.6886 12.1821 19.2353 12.4255 19.6314 12.8206C20.0276 13.2157 20.2733 13.7608 20.2733 14.3626V14.3718V14.381V14.3871V14.407C20.2702 14.5847 20.4115 14.7286 20.5881 14.7332C20.5988 14.7332 20.6096 14.7317 20.6203 14.7302C20.6311 14.7317 20.6418 14.7332 20.6526 14.7332C20.8292 14.7302 20.9705 14.5862 20.9674 14.407L20.9659 14.3841C20.9659 14.3443 20.9674 14.4254 20.9674 14.3642C20.9674 13.7623 21.2115 13.2172 21.6077 12.8221C22.0008 12.4286 22.5475 12.1851 23.151 12.1851C23.217 12.1851 23.1925 12.1836 23.171 12.1836H23.1786C23.1894 12.1836 23.1986 12.1805 23.2093 12.1805C23.2186 12.179 23.2293 12.179 23.2385 12.1775C23.2508 12.1744 23.2631 12.1713 23.2738 12.1667C23.2815 12.1637 23.2907 12.1621 23.2984 12.1591C23.3092 12.1545 23.3199 12.1484 23.3307 12.1422C23.3383 12.1376 23.346 12.1346 23.3522 12.13C23.3614 12.1239 23.369 12.1162 23.3783 12.1086C23.3859 12.1024 23.3936 12.0963 23.3998 12.0902C23.4059 12.0841 23.412 12.0764 23.4182 12.0687C23.4259 12.0595 23.4335 12.0519 23.4397 12.0427C23.4443 12.035 23.4474 12.0274 23.452 12.0213C23.4581 12.0105 23.4643 11.9998 23.4689 11.9891C23.4719 11.9815 23.4735 11.9738 23.4765 11.9646C23.4811 11.9524 23.4842 11.9416 23.4873 11.9294C23.4888 11.9202 23.4888 11.9095 23.4904 11.9003C23.4919 11.8896 23.4934 11.8804 23.4934 11.8697V11.8666V11.8635C23.4934 11.8528 23.4904 11.8436 23.4904 11.8329C23.4888 11.8237 23.4888 11.813 23.4873 11.8038C23.4842 11.79 23.4796 11.7778 23.475 11.7655C23.4719 11.7594 23.4704 11.7518 23.4689 11.7456C23.4627 11.7303 23.455 11.7165 23.4458 11.7028C23.4443 11.6997 23.4412 11.6951 23.4397 11.692C23.4289 11.6752 23.4167 11.6599 23.4028 11.6461C23.3445 11.5864 23.2631 11.5496 23.174 11.5496H23.1694H23.1587H23.1495C22.546 11.5496 21.9993 11.3061 21.6031 10.9111C21.2069 10.516 20.9628 9.97086 20.9628 9.36751C20.9628 9.30779 20.9613 9.38742 20.9613 9.34914L20.9628 9.32311C20.9643 9.14701 20.8246 9.00153 20.648 9C20.6372 9 20.6265 9.00153 20.6157 9.00306C20.605 9.00153 20.5942 9 20.5835 9C20.4069 9.00153 20.2641 9.14701 20.2687 9.32311V9.34761V9.35833V9.36598C20.2687 9.96933 20.023 10.5145 19.6268 10.9095C19.2307 11.3046 18.684 11.5481 18.0805 11.5481H18.0713H18.0651L18.0636 11.5435H18.0605C17.993 11.5435 17.93 11.5649 17.8793 11.6017C17.8778 11.6017 17.8778 11.6032 17.8778 11.6032C17.8624 11.6139 17.8486 11.6262 17.8348 11.6384C17.8271 11.6461 17.821 11.6553 17.8133 11.6645C17.8087 11.6706 17.8026 11.6767 17.7979 11.6844C17.7887 11.6982 17.7811 11.7135 17.7734 11.7288C17.7718 11.7318 17.7703 11.7349 17.7688 11.738C17.7611 11.7548 17.7565 11.7717 17.7519 11.7885C17.7503 11.7916 17.7503 11.7946 17.7488 11.7977C17.7457 11.8115 17.7457 11.8268 17.7442 11.8406C17.7442 11.8467 17.7427 11.8544 17.7427 11.8605V11.8635V11.8666C17.7411 11.8743 17.7427 11.8804 17.7427 11.8865ZM27.377 22.3162L15.1061 18.2016L19.9956 16.4314L32.2649 20.5444L27.377 22.3162ZM33.9801 23.2304C33.9816 23.238 33.9862 23.2426 33.9877 23.2503L34.5006 24.5197L31.9715 25.6116L31.8379 25.6682C31.8226 25.6743 31.8072 25.6805 31.7934 25.6881L26.7828 27.8549L27.6658 22.892L33.0557 20.9396L33.9801 23.2304ZM26.11 27.9651L13.4582 23.8505L14.3857 18.6348L27.0159 22.8689L26.11 27.9651ZM11.1365 25.1154L13.1005 24.4064L25.4252 28.4167L23.4014 29.2267L11.1365 25.1154ZM23.0449 29.7827L22.1174 35L9.48878 30.7674L10.4163 25.5489L23.0449 29.7827ZM28.791 27.7522L30.5155 31.4426L22.7916 34.8835L23.6961 29.7963L26.4694 28.683C26.4786 28.68 26.4863 28.6769 26.4909 28.6739L28.791 27.7522ZM31.5259 26.5011L30.8057 30.5482L29.353 27.4397L31.5259 26.5011ZM38 27.916L31.3694 31.0476L32.2339 26.1964L36.5597 24.3481L38 27.916ZM34.8367 23.6391L35.8271 23.9623L35.0946 24.2762L34.8367 23.6391Z" fill="url(#paint0_linear_424_1719)"/>
<defs>
<linearGradient id="paint0_linear_424_1719" x1="2.43429" y1="17.7455" x2="42.0239" y2="49.698" gradientUnits="userSpaceOnUse">
<stop stop-color="#ABABAB"/>
<stop offset="0.112406" stop-color="#C2C3C5"/>
<stop offset="0.289808" stop-color="#DFDFDF"/>
<stop offset="0.480603" stop-color="#EEEEEE"/>
<stop offset="0.624586" stop-color="#DEDDDD"/>
<stop offset="0.844139" stop-color="#BDBDBD"/>
<stop offset="0.937983" stop-color="#AFB1AE"/>
</linearGradient>
</defs>
</svg>
