<svg width="22" height="22" viewBox="0 0 22 22" fill="none" xmlns="http://www.w3.org/2000/svg">
<path d="M16.069 7.12254C16.0048 7.11337 15.9406 7.11337 15.8765 7.12254C14.4556 7.07671 13.3281 5.91254 13.3281 4.48254C13.3281 3.02504 14.5106 1.83337 15.9773 1.83337C17.4348 1.83337 18.6265 3.01587 18.6265 4.48254C18.6173 5.91254 17.4898 7.07671 16.069 7.12254Z" fill="#0E5723"/>
<path d="M19.0557 13.475C18.029 14.1625 16.5898 14.4192 15.2607 14.245C15.609 13.4933 15.7923 12.6592 15.8015 11.7792C15.8015 10.8625 15.5998 9.99167 15.2148 9.23084C16.5715 9.0475 18.0107 9.30417 19.0465 9.99167C20.4948 10.945 20.4948 12.5125 19.0557 13.475Z" fill="#0E5723"/>
<path d="M5.9038 7.12254C5.96797 7.11337 6.03214 7.11337 6.0963 7.12254C7.51714 7.07671 8.64464 5.91254 8.64464 4.48254C8.64464 3.01587 7.46214 1.83337 5.99547 1.83337C4.53797 1.83337 3.35547 3.01587 3.35547 4.48254C3.35547 5.91254 4.48297 7.07671 5.9038 7.12254Z" fill="#0E5723"/>
<path d="M6.00354 11.7792C6.00354 12.6684 6.19604 13.5117 6.54437 14.2726C5.25188 14.4101 3.90438 14.1351 2.91438 13.4842C1.46604 12.5217 1.46604 10.9542 2.91438 9.99172C3.89521 9.33172 5.27938 9.06589 6.58104 9.21255C6.20521 9.98255 6.00354 10.8534 6.00354 11.7792Z" fill="#0E5723"/>
<path d="M11.1084 14.5475C11.0351 14.5383 10.9526 14.5383 10.8701 14.5475C9.18344 14.4925 7.83594 13.1083 7.83594 11.4033C7.8451 9.66167 9.2476 8.25 10.9984 8.25C12.7401 8.25 14.1518 9.66167 14.1518 11.4033C14.1426 13.1083 12.8043 14.4925 11.1084 14.5475Z" fill="#0E5723"/>
<path d="M8.13187 16.445C6.74771 17.3709 6.74771 18.8925 8.13187 19.8092C9.70854 20.8634 12.2935 20.8634 13.8702 19.8092C15.2544 18.8834 15.2544 17.3617 13.8702 16.445C12.3027 15.3909 9.71771 15.3909 8.13187 16.445Z" fill="#0E5723"/>
</svg>
