<svg width="44" height="45" viewBox="0 0 44 45" fill="none" xmlns="http://www.w3.org/2000/svg">
<rect width="44" height="44.8462" rx="8" fill="#0E5723"/>
<path d="M27.069 18.1225C27.0048 18.1134 26.9406 18.1134 26.8765 18.1225C25.4556 18.0767 24.3281 16.9125 24.3281 15.4825C24.3281 14.025 25.5106 12.8334 26.9773 12.8334C28.4348 12.8334 29.6265 14.0159 29.6265 15.4825C29.6173 16.9125 28.4898 18.0767 27.069 18.1225Z" fill="white"/>
<path d="M30.0557 24.475C29.029 25.1625 27.5898 25.4192 26.2607 25.245C26.609 24.4933 26.7923 23.6592 26.8015 22.7792C26.8015 21.8625 26.5998 20.9917 26.2148 20.2308C27.5715 20.0475 29.0107 20.3042 30.0465 20.9917C31.4948 21.945 31.4948 23.5125 30.0557 24.475Z" fill="white"/>
<path d="M16.9038 18.1225C16.968 18.1134 17.0321 18.1134 17.0963 18.1225C18.5171 18.0767 19.6446 16.9125 19.6446 15.4825C19.6446 14.0159 18.4621 12.8334 16.9955 12.8334C15.538 12.8334 14.3555 14.0159 14.3555 15.4825C14.3555 16.9125 15.483 18.0767 16.9038 18.1225Z" fill="white"/>
<path d="M17.0035 22.7792C17.0035 23.6684 17.196 24.5117 17.5444 25.2726C16.2519 25.4101 14.9044 25.1351 13.9144 24.4842C12.466 23.5217 12.466 21.9542 13.9144 20.9917C14.8952 20.3317 16.2794 20.0659 17.581 20.2126C17.2052 20.9826 17.0035 21.8534 17.0035 22.7792Z" fill="white"/>
<path d="M22.1084 25.5475C22.0351 25.5383 21.9526 25.5383 21.8701 25.5475C20.1834 25.4925 18.8359 24.1083 18.8359 22.4033C18.8451 20.6617 20.2476 19.25 21.9984 19.25C23.7401 19.25 25.1518 20.6617 25.1518 22.4033C25.1426 24.1083 23.8043 25.4925 22.1084 25.5475Z" fill="white"/>
<path d="M19.1319 27.445C17.7477 28.3709 17.7477 29.8925 19.1319 30.8092C20.7085 31.8634 23.2935 31.8634 24.8702 30.8092C26.2544 29.8834 26.2544 28.3617 24.8702 27.445C23.3027 26.3909 20.7177 26.3909 19.1319 27.445Z" fill="white"/>
</svg>
