<svg width="40" height="40" viewBox="0 0 40 40" fill="none" xmlns="http://www.w3.org/2000/svg">
<path d="M38.7906 10.1453C37.7414 6.27969 33.7211 2.25938 29.8555 1.21016C27.4859 0.61875 24.3102 0.0101562 20 0C15.6906 0.0109375 12.5148 0.61875 10.1453 1.21016C6.27969 2.26016 2.25938 6.27969 1.21016 10.1453C0.61875 12.5148 0.0109375 15.6906 0 20C0.0109375 24.3102 0.61875 27.4859 1.21016 29.8555C2.25938 33.7211 6.27969 37.7406 10.1453 38.7906C12.5148 39.382 15.6922 39.9898 20 40.0008C24.3102 39.9898 27.4859 39.382 29.8555 38.7906C33.7211 37.7406 37.7414 33.7211 38.7906 29.8555C39.382 27.4859 39.9898 24.3086 40.0008 20C39.9898 15.6906 39.382 12.5148 38.7906 10.1453Z" fill="#B3F0B4" fill-opacity="0.3"/>
<path d="M12.1689 28.663C12.2329 28.2923 12.4558 27.7367 12.5639 27.3491L13.7719 23.1511L15.5498 16.9018C15.9565 15.4584 16.3282 13.9891 16.7877 12.5626C16.8887 12.249 17.4364 9.98021 17.6503 9.90967L21.065 16.4562C21.4981 17.2838 21.8904 18.136 22.3551 18.9471C22.4771 19.1601 22.5407 19.3409 22.6763 19.557C22.3881 20.02 20.8889 21.2808 20.3846 21.7467C18.85 23.1644 17.3381 24.6376 15.7492 25.9929C15.4097 26.0713 14.6858 26.7956 14.3936 27.0681L12.7852 28.562C12.7355 28.608 12.5672 28.8258 12.5277 28.8008C12.3777 28.7057 12.3133 28.945 12.1835 28.9372L12.1689 28.663Z" fill="url(#paint0_linear_56_3182)"/>
<path d="M21.0517 8C21.1708 8.08866 21.1285 8.07704 21.1846 8.20495C21.5599 9.06064 22.0766 9.94641 22.5021 10.7716L25.0117 15.6597C25.3592 16.3314 25.7548 17.0022 26.0775 17.7004C26.3592 18.3231 26.8167 18.9331 26.9892 19.5945C27.0992 20.0165 26.3638 20.5453 26.0878 20.7968L24.6888 22.0782L20.4324 25.9807C19.3021 27.0362 18.1624 28.0815 17.0132 29.1165C16.6605 29.429 14.4118 31.5536 14.2538 31.5827L14.2217 31.5392L14.2445 31.3952C14.6447 30.1788 14.8535 28.8267 15.3236 27.618C15.7355 26.5589 16.2068 27.1132 16.8237 27.4282C17.0646 27.0434 17.935 26.3209 18.307 25.9684C19.9889 24.3745 21.7487 22.8457 23.4307 21.2526C23.8757 20.8311 24.953 19.9557 25.3074 19.5299C25.3805 19.1677 21.8027 12.7974 21.417 11.7008C21.2135 12.0438 21.0424 12.332 20.6023 12.2656C20.4195 12.238 20.0516 12.1618 20.0097 11.9347C19.9265 11.4836 20.0496 10.9811 20.1731 10.5488C20.4261 9.73131 20.6505 8.91926 20.8606 8.09161C20.874 8.03882 21.0025 8.01524 21.0517 8Z" fill="url(#paint1_linear_56_3182)"/>
<path d="M12.1674 28.6633L12.182 28.9374C12.3118 28.9452 12.3762 28.7059 12.5261 28.801C12.5656 28.826 12.734 28.6083 12.7836 28.5622L14.392 27.0683C14.6843 26.7959 15.4082 26.0715 15.7477 25.9932C15.5028 26.2943 12.1387 29.3658 12.0037 29.3849C11.9737 29.3125 12.1333 28.7962 12.1674 28.6633Z" fill="url(#paint2_linear_56_3182)"/>
<defs>
<linearGradient id="paint0_linear_56_3182" x1="21.5512" y1="24.3887" x2="9.94039" y2="16.8845" gradientUnits="userSpaceOnUse">
<stop stop-color="#0D7E00"/>
<stop offset="0.52" stop-color="#0F8F01"/>
<stop offset="1" stop-color="#97F364"/>
</linearGradient>
<linearGradient id="paint1_linear_56_3182" x1="25.632" y1="25.945" x2="11.3552" y2="16.8908" gradientUnits="userSpaceOnUse">
<stop stop-color="#0D7E00"/>
<stop offset="0.52" stop-color="#0F8F01"/>
<stop offset="1" stop-color="#97F364"/>
</linearGradient>
<linearGradient id="paint2_linear_56_3182" x1="15.3464" y1="28.5741" x2="13.1494" y2="25.733" gradientUnits="userSpaceOnUse">
<stop stop-color="#0D7E00"/>
<stop offset="0.52" stop-color="#0F8F01"/>
<stop offset="1" stop-color="#97F364"/>
</linearGradient>
</defs>
</svg>
