<svg xmlns="http://www.w3.org/2000/svg" viewBox="0 0 48 48" width="48" height="48">
  <rect width="48" height="48" rx="10" fill="#25D366"/>
  <path d="M24 8C15.163 8 8 15.163 8 24c0 2.837.746 5.498 2.05 7.805L8 40l8.418-2.02A15.937 15.937 0 0024 40c8.837 0 16-7.163 16-16S32.837 8 24 8zm0 2c7.732 0 14 6.268 14 14s-6.268 14-14 14a13.93 13.93 0 01-7.101-1.937l-.508-.303-5.013 1.203 1.237-4.9-.33-.534A13.93 13.93 0 0110 24c0-7.732 6.268-14 14-14zm-4.398 7c-.22 0-.578.082-.882.41-.304.328-1.159 1.13-1.159 2.76s1.187 3.203 1.352 3.423c.165.22 2.317 3.66 5.682 4.988 2.807 1.108 3.378.888 3.988.832.61-.056 1.966-.802 2.243-1.577.275-.774.275-1.437.193-1.577-.082-.138-.304-.22-.635-.385-.33-.165-1.956-.966-2.26-1.075-.304-.11-.524-.165-.744.165-.22.33-.853 1.075-1.045 1.296-.193.22-.385.248-.716.083-.33-.165-1.397-.515-2.66-1.642-.984-.876-1.648-1.96-1.842-2.29-.192-.33-.02-.508.145-.672.15-.147.33-.385.496-.578.165-.193.22-.33.33-.55.11-.22.055-.413-.028-.578-.082-.165-.737-1.8-1.018-2.462-.269-.643-.543-.554-.744-.554z" fill="white"/>
</svg>
