<svg width="44" height="45" viewBox="0 0 44 45" fill="none" xmlns="http://www.w3.org/2000/svg">
<rect width="44" height="44.8462" rx="8" fill="#0E5723"/>
<path fill-rule="evenodd" clip-rule="evenodd" d="M22.7186 32.0242C22.734 32.0306 22.7477 32.0407 22.7596 32.0525C22.7714 32.0644 22.7815 32.0781 22.7879 32.0936C22.7943 32.1091 22.7977 32.1265 22.7977 32.1434V35.5057C22.7976 35.5388 22.7944 35.5718 22.7879 35.6043H23.8914C23.919 35.6044 23.9456 35.6134 23.9686 35.6287C23.9916 35.6441 24.0097 35.6656 24.0203 35.6912C24.0309 35.7168 24.0345 35.7451 24.0291 35.7723C24.0237 35.7995 24.0097 35.8249 23.99 35.8445L22.0994 37.7352C22.0864 37.7482 22.0705 37.7584 22.0535 37.7654C22.0365 37.7725 22.0182 37.7762 21.9998 37.7762C21.9814 37.7762 21.9631 37.7725 21.9461 37.7654C21.9291 37.7584 21.9132 37.7481 21.9002 37.7352L20.0096 35.8445C19.9899 35.8249 19.9759 35.7995 19.9705 35.7723C19.9651 35.7451 19.9687 35.7168 19.9793 35.6912C19.9899 35.6656 20.008 35.6441 20.0311 35.6287C20.054 35.6134 20.0806 35.6044 20.1082 35.6043H21.2117C21.2052 35.5718 21.202 35.5388 21.202 35.5057V32.1434C21.2019 32.1265 21.2053 32.1091 21.2117 32.0936C21.2182 32.0781 21.2282 32.0644 21.24 32.0525C21.2519 32.0407 21.2656 32.0306 21.2811 32.0242C21.2965 32.0178 21.3132 32.0145 21.3299 32.0145H22.6697C22.6864 32.0145 22.7031 32.0178 22.7186 32.0242ZM13.701 29.6824C13.7349 29.6824 13.7678 29.6965 13.7918 29.7205C13.8156 29.7444 13.8288 29.7766 13.8289 29.8104V33.1736C13.8289 33.2068 13.8257 33.2398 13.8191 33.2723H14.9227C14.9504 33.2723 14.9777 33.2803 15.0008 33.2957C15.0239 33.3111 15.0419 33.3335 15.0525 33.3592C15.0631 33.3848 15.0658 33.4131 15.0603 33.4402C15.0549 33.4674 15.0419 33.4929 15.0223 33.5125L13.1307 35.4031C13.1043 35.4295 13.0683 35.4441 13.0311 35.4441C12.994 35.444 12.9586 35.4293 12.9324 35.4031L11.0408 33.5125C11.0212 33.4929 11.0082 33.4674 11.0027 33.4402C10.9973 33.413 11 33.3848 11.0105 33.3592C11.0212 33.3335 11.0392 33.3111 11.0623 33.2957C11.0854 33.2803 11.1127 33.2723 11.1404 33.2723H12.2439C12.2374 33.2398 12.2342 33.2068 12.2342 33.1736V29.8104C12.2343 29.7766 12.2475 29.7444 12.2713 29.7205C12.2953 29.6965 12.3281 29.6824 12.3621 29.6824H13.701ZM31.6375 29.6824C31.6715 29.6824 31.7043 29.6965 31.7283 29.7205C31.7522 29.7444 31.7653 29.7766 31.7654 29.8104V33.1736C31.7654 33.2068 31.7622 33.2398 31.7557 33.2723H32.8592C32.8869 33.2723 32.9143 33.2804 32.9373 33.2957C32.9604 33.3111 32.9784 33.3335 32.9891 33.3592C32.9997 33.3848 33.0023 33.413 32.9969 33.4402C32.9914 33.4674 32.9784 33.4929 32.9588 33.5125L31.0672 35.4031C31.0409 35.4293 31.0056 35.444 30.9686 35.4441C30.9313 35.4441 30.8953 35.4295 30.8689 35.4031L28.9773 33.5125C28.9577 33.4929 28.9447 33.4675 28.9393 33.4402C28.9338 33.4131 28.9365 33.3848 28.9471 33.3592C28.9577 33.3335 28.9757 33.3111 28.9988 33.2957C29.0219 33.2803 29.0492 33.2723 29.077 33.2723H30.1805C30.1739 33.2398 30.1707 33.2068 30.1707 33.1736V29.8104C30.1708 29.7766 30.184 29.7444 30.2078 29.7205C30.2318 29.6965 30.2647 29.6824 30.2986 29.6824H31.6375ZM17.9158 8.81426C19.8609 8.00633 22.0021 7.79371 24.0682 8.20293C26.1342 8.61216 28.033 9.62473 29.5232 11.1131C31.0134 12.6014 32.0284 14.4988 32.4402 16.5643C32.852 18.6296 32.642 20.7707 31.8367 22.7166C31.0313 24.6626 29.6668 26.3265 27.9158 27.4969C26.1647 28.6672 24.105 29.2919 21.9988 29.2918C19.1793 29.2875 16.4763 28.1661 14.4812 26.1736C12.4862 24.1811 11.3612 21.4796 11.3533 18.66C11.3505 16.5538 11.9733 14.4936 13.1414 12.741C14.3095 10.9887 15.971 9.62214 17.9158 8.81426ZM18.3602 12.9617V14.157H19.6365C19.9917 14.157 20.2932 14.2213 20.5408 14.3504C20.7991 14.4688 21.0034 14.6362 21.1541 14.8514C21.3156 15.0667 21.4293 15.3146 21.4939 15.5945H18.3602V16.7898H21.5096C21.4342 17.0911 21.2941 17.349 21.0896 17.5643C20.8959 17.7795 20.6488 17.9468 20.3475 18.0652C20.0568 18.1729 19.7174 18.2263 19.3299 18.2264H18.3602V19.4217L21.2674 24.493H24.1424L20.9773 19.5672C21.7739 19.4057 22.4255 19.1042 22.9314 18.6629C23.4373 18.2108 23.7437 17.5863 23.8514 16.7898H25.6443V15.5945H23.8191C23.7761 15.3147 23.6905 15.056 23.5613 14.8191C23.4429 14.5823 23.2912 14.3616 23.1082 14.157H25.6443V12.9617H18.3602Z" fill="url(#paint0_linear_424_1711)"/>
<defs>
<linearGradient id="paint0_linear_424_1711" x1="8.54862" y1="18.0156" x2="44.9504" y2="35.6523" gradientUnits="userSpaceOnUse">
<stop stop-color="#ABABAB"/>
<stop offset="0.112406" stop-color="#C2C3C5"/>
<stop offset="0.289808" stop-color="#DFDFDF"/>
<stop offset="0.480603" stop-color="#EEEEEE"/>
<stop offset="0.624586" stop-color="#DEDDDD"/>
<stop offset="0.844139" stop-color="#BDBDBD"/>
<stop offset="0.937983" stop-color="#AFB1AE"/>
</linearGradient>
</defs>
</svg>
