<svg width="44" height="45" viewBox="0 0 44 45" fill="none" xmlns="http://www.w3.org/2000/svg">
<rect width="44" height="44.8462" rx="8" fill="#0E5723"/>
<path fill-rule="evenodd" clip-rule="evenodd" d="M22.7186 32.0242C22.7341 32.0306 22.7487 32.0406 22.7605 32.0525C22.7722 32.0642 22.7815 32.0782 22.7879 32.0935C22.7943 32.1091 22.7977 32.1265 22.7977 32.1433V35.5056C22.7976 35.5387 22.7945 35.5718 22.7879 35.6042H23.8914C23.9191 35.6043 23.9465 35.6133 23.9695 35.6287C23.9924 35.6441 24.0107 35.6656 24.0213 35.6912C24.0319 35.7168 24.0345 35.745 24.0291 35.7722C24.0237 35.7994 24.0106 35.8249 23.991 35.8445L22.0994 37.7351C22.0864 37.7481 22.0706 37.7583 22.0535 37.7654C22.0365 37.7724 22.0182 37.7761 21.9998 37.7761C21.9815 37.7761 21.963 37.7724 21.9461 37.7654C21.9292 37.7583 21.9141 37.748 21.9012 37.7351L20.0096 35.8445C19.9899 35.8249 19.9769 35.7994 19.9715 35.7722C19.9661 35.745 19.9687 35.7168 19.9793 35.6912C19.9899 35.6656 20.008 35.6441 20.0311 35.6287C20.0541 35.6132 20.0814 35.6043 20.1092 35.6042H21.2127C21.2061 35.5718 21.202 35.5388 21.202 35.5056V32.1433C21.202 32.1265 21.2053 32.1091 21.2117 32.0935C21.2182 32.0781 21.2282 32.0643 21.24 32.0525C21.2519 32.0407 21.2656 32.0306 21.2811 32.0242C21.2966 32.0177 21.314 32.0144 21.3309 32.0144H22.6697C22.6864 32.0144 22.7031 32.0178 22.7186 32.0242ZM13.701 29.6824C13.735 29.6824 13.7678 29.6964 13.7918 29.7205C13.8157 29.7445 13.8289 29.7774 13.8289 29.8113V33.1736C13.8289 33.2067 13.8257 33.2397 13.8191 33.2722H14.9227C14.9504 33.2722 14.9777 33.2803 15.0008 33.2957C15.0239 33.3111 15.0419 33.3335 15.0525 33.3591C15.0631 33.3848 15.0658 33.413 15.0604 33.4402C15.0549 33.4674 15.0419 33.4928 15.0223 33.5125L13.1307 35.4031C13.1045 35.4293 13.0691 35.444 13.032 35.4441C12.9948 35.4441 12.9588 35.4294 12.9324 35.4031L11.0408 33.5125C11.0212 33.4928 11.0082 33.4674 11.0027 33.4402C10.9973 33.413 10.9999 33.3848 11.0105 33.3591C11.0212 33.3335 11.0392 33.3111 11.0623 33.2957C11.0854 33.2803 11.1127 33.2722 11.1404 33.2722H12.2439C12.2374 33.2397 12.2342 33.2067 12.2342 33.1736V29.8113C12.2342 29.7774 12.2474 29.7445 12.2713 29.7205C12.2953 29.6964 12.3281 29.6824 12.3621 29.6824H13.701ZM31.6385 29.6824C31.6724 29.6824 31.7053 29.6965 31.7293 29.7205C31.7531 29.7444 31.7664 29.7775 31.7664 29.8113V33.1736C31.7664 33.2067 31.7632 33.2398 31.7566 33.2722H32.8602C32.8878 33.2723 32.9153 33.2803 32.9383 33.2957C32.9613 33.3111 32.9794 33.3335 32.99 33.3591C33.0006 33.3847 33.0032 33.413 32.9979 33.4402C32.9924 33.4674 32.9784 33.4928 32.9588 33.5125L31.0682 35.4031C31.0418 35.4294 31.0058 35.4441 30.9686 35.4441C30.9314 35.4441 30.8953 35.4294 30.8689 35.4031L28.9783 33.5125C28.9587 33.4928 28.9447 33.4674 28.9393 33.4402C28.9339 33.413 28.9374 33.3848 28.948 33.3591C28.9587 33.3335 28.9767 33.3111 28.9998 33.2957C29.0227 33.2805 29.0495 33.2723 29.077 33.2722H30.1805C30.1739 33.2398 30.1707 33.2067 30.1707 33.1736V29.8113C30.1707 29.7773 30.1848 29.7445 30.2088 29.7205C30.2327 29.6966 30.2648 29.6825 30.2986 29.6824H31.6385ZM17.9158 8.81421C19.8609 8.00633 22.0021 7.79374 24.0682 8.20288C26.1342 8.61209 28.033 9.62475 29.5232 11.113C31.0135 12.6014 32.0284 14.4987 32.4402 16.5642C32.8521 18.6296 32.6421 20.7705 31.8367 22.7166C31.0313 24.6626 29.6669 26.3265 27.9158 27.4968C26.1648 28.6671 24.106 29.2918 21.9998 29.2917C19.18 29.2876 16.4764 28.1661 14.4813 26.1736C12.4862 24.1811 11.3611 21.4795 11.3533 18.6599C11.3506 16.5538 11.9733 14.4945 13.1414 12.7419C14.3095 10.9894 15.9708 9.62214 17.9158 8.81421ZM18.3602 12.9626V14.158H19.6365C19.9918 14.158 20.2932 14.2222 20.5408 14.3513C20.7992 14.4697 21.0043 14.637 21.1551 14.8523C21.3164 15.0675 21.4294 15.3157 21.4939 15.5955H18.3602V16.7898H21.5096C21.4342 17.0913 21.2942 17.3499 21.0897 17.5652C20.8959 17.7804 20.6488 17.9478 20.3475 18.0662C20.0568 18.1738 19.7174 18.2273 19.3299 18.2273H18.3602V19.4226L21.2674 24.4939H24.1424L20.9773 19.5681C21.7739 19.4066 22.4255 19.1052 22.9314 18.6638C23.4375 18.2116 23.7437 17.5865 23.8514 16.7898H25.6443V15.5955H23.8191C23.7761 15.3157 23.6904 15.0568 23.5613 14.8201C23.443 14.5834 23.2921 14.3624 23.1092 14.158H25.6443V12.9626H18.3602Z" fill="url(#paint0_linear_424_1706)"/>
<defs>
<linearGradient id="paint0_linear_424_1706" x1="9.49139" y1="19.6398" x2="44.4959" y2="36.442" gradientUnits="userSpaceOnUse">
<stop stop-color="#EF9B00"/>
<stop offset="0.120192" stop-color="#F5AC03"/>
<stop offset="0.245962" stop-color="#FF9D00"/>
<stop offset="0.471154" stop-color="#F8C30D"/>
<stop offset="0.697115" stop-color="#F5A702"/>
<stop offset="0.899038" stop-color="#E78400"/>
</linearGradient>
</defs>
</svg>
